<?xml version="1.0" encoding="UTF-8"?>
<svg version="1.1" xmlns="http://www.w3.org/2000/svg" width="1254" height="1254">
<path d="M0 0 C413.82 0 827.64 0 1254 0 C1254 413.82 1254 827.64 1254 1254 C840.18 1254 426.36 1254 0 1254 C0 840.18 0 426.36 0 0 Z " fill="#111A2C" transform="translate(0,0)"/>
<path d="M0 0 C0.79068878 -0.00067474 1.58137756 -0.00134949 2.39602661 -0.00204468 C63.95567088 0.0809313 121.57103613 24.79125537 165.75 67.25 C166.29543457 67.76820313 166.84086914 68.28640625 167.40283203 68.8203125 C175.68885147 76.71963482 182.93113789 85.06202369 189.75 94.25 C190.17909668 94.81831543 190.60819336 95.38663086 191.05029297 95.97216797 C197.81370562 104.948223 203.50646708 114.3155145 208.75 124.25 C209.27207031 125.23637451 209.27207031 125.23637451 209.8046875 126.24267578 C222.39815648 150.24009905 230.71794938 175.01041134 234.29913521 201.93165493 C234.60313366 204.16907018 234.9238045 206.40427526 235.26000786 208.63707829 C236.5108807 217.22547532 237.02918669 225.55967071 236.97705078 234.25366211 C236.97734283 235.56283096 236.97763489 236.87199982 236.97793579 238.22084045 C236.9785017 241.75708684 236.96687333 245.29319317 236.95278788 248.82940745 C236.94015109 252.54491991 236.93909995 256.26043677 236.93673706 259.97596741 C236.93055987 266.98785983 236.91420086 273.99968871 236.89403808 281.01155335 C236.87156088 289.004485 236.86065615 296.99741993 236.85064721 304.9903754 C236.82983057 321.41028726 236.79472906 337.83013548 236.75 354.25 C237.38876572 354.24111755 238.02753143 354.23223511 238.68565369 354.2230835 C245.4194938 354.13361214 252.15316133 354.07385825 258.88745117 354.03027344 C261.39045079 354.01033306 263.8934049 353.98317084 266.39624023 353.94824219 C290.74689459 353.61727187 310.71465825 355.57591248 329.75 372.25 C330.42546875 372.83136719 331.1009375 373.41273438 331.796875 374.01171875 C342.8710788 384.24891877 350.52968917 399.20197181 351.75 414.25 C351.89971896 418.65798399 351.90641092 423.06361531 351.91062927 427.47386169 C351.91536732 428.81333676 351.92051918 430.15281041 351.92604691 431.49228245 C351.93987943 435.15829707 351.94751554 438.82430183 351.9540199 442.49033582 C351.96041465 445.63854413 351.9704812 448.78673645 351.98058056 451.93493473 C352.01381659 462.30232522 352.03540798 472.66972544 352.05378041 483.03715166 C352.0585808 485.73880347 352.06356344 488.44045489 352.06858563 491.14210629 C352.0995584 507.94193276 352.12622503 524.74176277 352.14300442 541.54160976 C352.14695348 545.42837467 352.15095654 549.31513952 352.1550293 553.2019043 C352.15603766 554.16786142 352.15704602 555.13381855 352.15808494 556.1290471 C352.17508074 571.76612655 352.21618257 587.40304745 352.26705229 603.04004955 C352.31892068 619.11707081 352.34795859 635.19401068 352.3552013 651.27111489 C352.35985145 660.28860436 352.37447564 669.305834 352.4149456 678.32324028 C352.44938038 686.00488292 352.46313072 693.68621875 352.45052146 701.3679341 C352.4447262 705.28113463 352.44833433 709.19368739 352.4786911 713.10678864 C352.70037609 743.28161064 352.70037609 743.28161064 345.75 757.25 C345.27297858 758.21029838 344.79595716 759.17059675 344.30448055 760.15999508 C336.40362372 775.04593177 323.97072804 785.47387277 308.75 792.25 C307.61855438 792.78595453 307.61855438 792.78595453 306.46425128 793.33273643 C295.69439014 797.69555769 284.28693556 796.80798647 272.86407471 796.7646637 C270.41498546 796.76999203 267.96589948 796.77705937 265.51681972 796.78571075 C260.20243259 796.80044483 254.88825637 796.80281352 249.57387161 796.79411316 C241.67086151 796.78120981 233.767994 796.79122673 225.86499241 796.80561271 C211.74697954 796.83052022 197.62903381 796.83244222 183.51100538 796.82433859 C171.15345408 796.81726035 158.79592881 796.81721365 146.43837738 796.82420158 C144.77946917 796.82511292 143.12056095 796.82602369 141.46165274 796.82693387 C138.96168045 796.82831704 136.46170817 796.82970813 133.9617359 796.83112001 C110.7243114 796.84409759 87.48689561 796.84921921 64.24946976 796.8375864 C62.9360348 796.83692945 62.9360348 796.83692945 61.5960658 796.83625922 C54.48583141 796.83265256 47.37559714 796.8288177 40.26536288 796.82496829 C12.53754915 796.81012439 -15.19016606 796.81889562 -42.91796875 796.84692383 C-74.08767746 796.87837116 -105.25732786 796.89331537 -136.42705274 796.88312382 C-139.75240659 796.88208708 -143.07776045 796.88109985 -146.40311432 796.8801403 C-147.63124624 796.87976697 -147.63124624 796.87976697 -148.8841889 796.8793861 C-161.22905473 796.87594994 -173.57386897 796.8852374 -185.91872406 796.90091133 C-199.96352369 796.91870288 -214.008198 796.91877887 -228.05299231 796.89555968 C-235.90602284 796.88308549 -243.75876521 796.88425623 -251.61177865 796.90544054 C-257.48553579 796.91972298 -263.35905246 796.90768279 -269.23279181 796.88564359 C-271.60147544 796.88077038 -273.97019484 796.88424827 -276.33884844 796.89713103 C-299.17734882 797.0123383 -316.88108732 792.81877282 -333.97265625 776.5859375 C-348.60530571 761.57680478 -354.91693372 743.02518261 -354.75120544 722.30256653 C-354.75673984 720.98331309 -354.76227424 719.66405964 -354.76797634 718.30482882 C-354.78256435 714.690427 -354.77265086 711.07646826 -354.75823963 707.46208155 C-354.74703781 703.54590319 -354.75910244 699.62978238 -354.76808167 695.71360779 C-354.78195284 688.06140147 -354.77450405 680.40936114 -354.75940608 672.75716285 C-354.74247479 663.83342165 -354.74576508 654.90972098 -354.74950016 645.98596867 C-354.75536726 630.05872763 -354.74125107 614.13156586 -354.71655273 598.2043457 C-354.69262324 582.77104727 -354.68555468 567.33785467 -354.69604492 551.90454102 C-354.70746797 535.06888369 -354.709368 518.23327522 -354.69494683 501.39761847 C-354.69342109 499.60076408 -354.69190073 497.80390968 -354.69038582 496.00705528 C-354.689628 495.12312514 -354.68887019 494.23919499 -354.68808941 493.32847909 C-354.68335825 487.11676828 -354.68518962 480.90507938 -354.68945122 474.69336891 C-354.69439033 467.11975367 -354.68833783 459.54623825 -354.66855692 451.9726458 C-354.65872228 448.11287417 -354.65353821 444.25325416 -354.66144943 440.39347458 C-354.66986648 436.20100159 -354.65485565 432.00892881 -354.63768005 427.81648254 C-354.6436901 426.60878309 -354.64970014 425.40108363 -354.65589231 424.15678722 C-354.50704205 404.11661365 -346.66833581 388.02200265 -333.125 373.5625 C-318.45038094 359.33503 -299.50566006 353.87150908 -279.4609375 354.0546875 C-277.68428207 354.05893234 -277.68428207 354.05893234 -275.87173462 354.06326294 C-272.12271631 354.07437605 -268.37394499 354.0994642 -264.625 354.125 C-262.06901389 354.13504126 -259.513024 354.1441651 -256.95703125 354.15234375 C-250.7212712 354.17428629 -244.48565325 354.20767461 -238.25 354.25 C-238.25368717 353.55483245 -238.25737434 352.8596649 -238.26117325 352.14343166 C-238.35004714 335.11953297 -238.41596116 318.09570907 -238.45724869 301.07163143 C-238.47775281 292.83844028 -238.5056365 284.60540527 -238.55175781 276.37231445 C-238.59200248 269.18474713 -238.6175207 261.99729304 -238.62635398 254.80961615 C-238.63150611 251.01427605 -238.64335103 247.21925949 -238.67292023 243.42402458 C-238.7969173 226.8598305 -238.28298374 210.90619282 -234.75913239 194.64071846 C-234.07569229 191.43150824 -233.49095697 188.20692895 -232.90907669 184.97799587 C-226.333604 150.16995306 -209.28345699 115.94276927 -186.58398438 88.84423828 C-185.2332004 87.22992288 -183.90481253 85.59899354 -182.578125 83.96484375 C-172.92431782 72.18712901 -162.31738624 61.56184135 -150.25 52.25 C-149.68506836 51.80333984 -149.12013672 51.35667969 -148.53808594 50.89648438 C-116.29354613 25.42484897 -79.80948324 10.50242869 -39.6875 3 C-38.82020264 2.83669189 -37.95290527 2.67338379 -37.05932617 2.50512695 C-24.76732781 0.30757662 -12.45421546 0.00962068 0 0 Z " fill="#5564CB" transform="translate(626.25,220.75)"/>
<path d="M0 0 C413.82 0 827.64 0 1254 0 C1254 413.82 1254 827.64 1254 1254 C840.18 1254 426.36 1254 0 1254 C0 840.18 0 426.36 0 0 Z M219 98 C218.27458008 98.20882812 217.54916016 98.41765625 216.80175781 98.6328125 C206.57710308 101.60942232 197.33649163 105.97320093 188 111 C187.38205566 111.3290332 186.76411133 111.65806641 186.12744141 111.99707031 C147.06100459 132.9452853 114.64081995 170.48016387 100.625 212.6875 C100.36976562 213.53699219 100.11453125 214.38648438 99.8515625 215.26171875 C99 218 99 218 97.55859375 221.4140625 C95.21206307 227.60281883 94.45559358 234.1786007 93.4375 240.6875 C93.22931641 241.97333984 93.02113281 243.25917969 92.80664062 244.58398438 C92.39127275 247.1608277 91.98290401 249.73880899 91.58154297 252.31787109 C91.21947501 254.61036018 90.84116765 256.90041799 90.43798828 259.18603516 C87.26985991 277.69364907 87.85578295 296.67156091 87.87301636 315.38035583 C87.87241631 318.12391631 87.87031366 320.86747519 87.86828911 323.61103493 C87.86470011 329.54739197 87.86477291 335.4837399 87.86733627 341.42009735 C87.87113797 350.24854936 87.86917503 359.07699376 87.86612797 367.90544573 C87.86087549 383.68082764 87.86131346 399.45620549 87.86420688 415.23158779 C87.86672744 429.04292748 87.86737682 442.85426568 87.86618423 456.66560555 C87.86610785 457.58354295 87.86603146 458.50148036 87.86595276 459.44723406 C87.8656414 463.17401127 87.86532299 466.90078849 87.864993 470.6275657 C87.86193664 505.56192624 87.86470286 540.49628421 87.8700899 575.43064435 C87.87483163 606.41559697 87.87441357 637.40054547 87.86962891 668.38549805 C87.86426395 703.24443613 87.862157 738.10337193 87.86524117 772.96231037 C87.86556185 776.6848911 87.8658747 780.40747184 87.86618423 784.13005257 C87.86626331 785.04655944 87.86634239 785.9630663 87.86642386 786.90734611 C87.86755744 800.69816929 87.86623829 814.48899082 87.86370468 828.27981377 C87.86083448 843.98047531 87.86158326 859.68113217 87.86698543 875.38179313 C87.86990344 884.14983519 87.87014012 892.91786709 87.86633925 901.68590886 C87.86407349 907.56550529 87.86553393 913.4450937 87.86984402 919.32468896 C87.87219047 922.65955552 87.87253559 925.99438606 87.86943804 929.32925432 C87.8580479 942.62516113 87.99000135 955.90048981 88.45373726 969.18919468 C88.49359505 970.33539545 88.53345283 971.48159623 88.57451843 972.66253036 C88.92050702 981.65450687 89.69910312 990.519534 90.875 999.4375 C91.03868326 1000.78960214 91.20143704 1002.14181712 91.36328125 1003.49414062 C92.64013049 1013.82658952 94.26015074 1024.21841901 98.1875 1033.9140625 C99.57509112 1037.47643586 100.68245015 1041.13481064 101.83984375 1044.77734375 C108.4112292 1063.03119221 118.71843538 1080.06339164 131 1095 C131.50563477 1095.61842773 132.01126953 1096.23685547 132.53222656 1096.87402344 C166.65308841 1138.31733056 212.56812558 1160.4083134 265.49449313 1165.56261224 C281.49291917 1166.99275518 297.38023979 1167.28577076 313.43441772 1167.26069641 C316.21941841 1167.26262177 319.00441217 1167.26753732 321.78940928 1167.27228898 C327.79790817 1167.28096976 333.80637297 1167.28239244 339.81487656 1167.27878571 C348.75087981 1167.2734361 357.68685056 1167.27961644 366.62285029 1167.28786864 C383.51924942 1167.30304523 400.41563347 1167.30482019 417.31203799 1167.30234561 C430.3694003 1167.30050705 443.42675772 1167.30228433 456.48411942 1167.30657005 C458.36558573 1167.30717248 460.24705204 1167.30777368 462.12851835 1167.30837366 C464.96436243 1167.309281 467.8002065 1167.31018967 470.63605057 1167.31110601 C496.97677531 1167.31952628 523.31749821 1167.32387773 549.65822411 1167.31969929 C551.14529484 1167.31946472 551.14529484 1167.31946472 552.66240741 1167.31922542 C557.68614537 1167.31841974 562.70988333 1167.31757397 567.73362128 1167.31671212 C568.7311981 1167.31654103 569.72877491 1167.31636994 570.75658132 1167.31619367 C572.77392145 1167.31584701 574.79126159 1167.31549848 576.80860172 1167.31514808 C608.17726254 1167.30979451 639.54589522 1167.31771477 670.91455078 1167.33618164 C706.22883197 1167.3569474 741.54309574 1167.36761552 776.85738337 1167.36360615 C780.63082989 1167.36321087 784.40427641 1167.36284931 788.17772293 1167.36250877 C789.10671034 1167.36241804 790.03569775 1167.36232731 790.9928363 1167.36223383 C804.95227682 1167.36107301 818.91169961 1167.36767678 832.87113571 1167.37832069 C848.76945671 1167.39043128 864.66773895 1167.39186488 880.56606059 1167.37953053 C888.66356071 1167.37352762 896.76099142 1167.37213995 904.85848618 1167.38453293 C973.33148336 1167.48381906 1041.35802833 1167.32835393 1096 1120 C1097.22589844 1118.95779297 1097.22589844 1118.95779297 1098.4765625 1117.89453125 C1114.80392798 1103.66639847 1127.37424737 1086.77641066 1138 1068 C1138.35191406 1067.38656738 1138.70382812 1066.77313477 1139.06640625 1066.14111328 C1156.40683754 1035.73937004 1161.31420439 1001.04748432 1162.55456352 966.51485252 C1162.59669639 965.3480278 1162.63882925 964.18120307 1162.68223887 962.97902002 C1163.11838155 949.90680833 1163.13919932 936.84048121 1163.12698364 923.76235962 C1163.12758543 921.02340506 1163.12968903 918.28445208 1163.13171089 915.54549825 C1163.13528381 909.64418015 1163.13523728 903.74287123 1163.13266373 897.84155273 C1163.12884717 889.0657057 1163.13083242 880.28986627 1163.13387203 871.51401928 C1163.13911208 855.83290786 1163.13869179 840.15180055 1163.13579312 824.47068875 C1163.13326969 810.75097036 1163.13262453 797.03125346 1163.13381577 783.31153488 C1163.13389215 782.3986769 1163.13396854 781.48581892 1163.13404724 780.54529858 C1163.13435861 776.83904103 1163.13467702 773.13278347 1163.135007 769.42652592 C1163.13806002 734.72185174 1163.13530176 700.01718016 1163.1299101 665.31250639 C1163.12516276 634.52099896 1163.12559183 603.72949567 1163.13037109 572.93798828 C1163.13573191 538.28451676 1163.13784582 503.63104754 1163.13475883 468.97757566 C1163.13443814 465.28024062 1163.1341253 461.58290557 1163.13381577 457.88557053 C1163.13373669 456.9752963 1163.13365761 456.06502208 1163.13357614 455.12716378 C1163.13244145 441.41636524 1163.13376367 427.70556836 1163.13629532 413.99477005 C1163.13916049 398.40060187 1163.13842704 382.80643841 1163.13301457 367.21227081 C1163.1300894 358.4982605 1163.1298705 349.78426041 1163.13366075 341.07025037 C1163.13591744 335.23588822 1163.13448198 329.40153418 1163.13015598 323.56717322 C1163.12779749 320.25254185 1163.12748317 316.93794702 1163.13056196 313.62331386 C1163.14822247 293.01828449 1162.98819435 272.62412744 1159.6875 252.25 C1159.46229234 250.81771283 1159.23711366 249.38542111 1159.01196289 247.953125 C1156.2844693 229.49743542 1156.2844693 229.49743542 1149.9765625 212.0625 C1148.90197471 209.79297059 1148.15364871 207.51188578 1147.375 205.125 C1132.53294978 163.72959432 1098.55761438 130.91091375 1060.83691406 110.02099609 C1059.26219707 109.14573474 1057.70355158 108.24166647 1056.1484375 107.33203125 C1049.40360563 103.62137891 1042.23063922 101.25735225 1034.9375 98.875 C1033.95136719 98.54999512 1032.96523437 98.22499023 1031.94921875 97.89013672 C1016.81328417 93.11892144 1001.18734951 90.330738 985.41488647 88.78036499 C984.14685716 88.65447831 984.14685716 88.65447831 982.85321109 88.52604847 C956.45673936 86.00502269 929.89366837 86.4419816 903.40486318 86.50143987 C895.34297544 86.51869136 887.28114473 86.51187367 879.21924797 86.504761 C864.34422732 86.49231654 849.46927068 86.49843132 834.59425735 86.51594925 C819.88003571 86.53327286 805.16584287 86.54298734 790.45161057 86.54261398 C789.07051661 86.54259105 789.07051661 86.54259105 787.66152177 86.54256765 C783.92282145 86.54248581 780.18412113 86.54235456 776.44542081 86.54215602 C741.48955801 86.54035035 706.53373881 86.5601372 671.57789112 86.59101535 C640.58935597 86.61828808 609.60085174 86.63073624 578.61230469 86.62939453 C576.62012035 86.62931371 574.62793602 86.62923299 572.63575168 86.62915237 C571.65080175 86.62911167 570.66585183 86.62907097 569.65105494 86.62902904 C564.69188791 86.62882741 559.73272088 86.62864625 554.77355385 86.62848854 C553.79496221 86.62845511 552.81637056 86.62842169 551.80812463 86.62838725 C525.82406494 86.62765564 499.84000909 86.63674711 473.85595262 86.64914167 C472.93080708 86.64958221 472.00566154 86.65002276 471.05248129 86.65047665 C467.33320867 86.65225284 463.61393605 86.65402971 459.89466346 86.65585856 C447.0069538 86.66215428 434.11924716 86.66519391 421.23153606 86.66608154 C404.62664724 86.66727985 388.02178379 86.67535142 371.41690578 86.69494446 C362.6551991 86.7051071 353.89352957 86.71001591 345.1318173 86.70695209 C339.2584921 86.70546797 333.38520265 86.71140231 327.51188892 86.72303971 C324.18014811 86.72945127 320.84854702 86.7318916 317.5167938 86.72751851 C284.23168952 86.68870593 251.04955231 88.52599776 219 98 Z " fill="#FDFDFD" transform="translate(0,0)"/>
<path d="M0 0 C2.22980511 -0.00648762 4.45960477 -0.01514738 6.689394 -0.0257743 C12.77932838 -0.04847518 18.86887826 -0.04024475 24.95882511 -0.02663505 C30.86386162 -0.01830575 36.7688092 -0.03350729 42.67382735 -0.0478374 C55.48756961 -0.07795259 68.3011942 -0.07949268 81.11496013 -0.06848438 C92.32879089 -0.05887824 103.54257665 -0.05819677 114.75640869 -0.06637001 C116.26338613 -0.06743583 117.77036357 -0.06850137 119.27734101 -0.06956664 C121.548487 -0.07118779 123.81963299 -0.0728201 126.09077895 -0.07447967 C147.19051869 -0.08972426 168.29024338 -0.09525615 189.38998413 -0.07988262 C190.58171132 -0.07901447 190.58171132 -0.07901447 191.7975138 -0.07812878 C198.24839995 -0.07336455 204.69928587 -0.06830635 211.15017179 -0.06323105 C236.314203 -0.04363711 261.47807373 -0.05284803 286.64208984 -0.08564758 C314.94495624 -0.1224606 343.24772873 -0.13951282 371.55061913 -0.12623531 C374.57034681 -0.1248779 377.59007452 -0.12357783 380.60980225 -0.12230873 C381.72501997 -0.12181679 381.72501997 -0.12181679 382.86276735 -0.1213149 C394.06676714 -0.11674523 405.27068649 -0.12734794 416.47467041 -0.14555931 C429.22017807 -0.16622154 441.96548545 -0.16555084 454.71098185 -0.13692691 C461.21025948 -0.1231731 467.70916387 -0.11893042 474.20842743 -0.14087677 C480.16477037 -0.16072379 486.12041268 -0.1525846 492.0767076 -0.12268243 C494.22454456 -0.11670346 496.37243905 -0.12071004 498.52022958 -0.13604566 C515.77033049 -0.25018021 530.05007361 2.21731896 543.68310547 13.64164734 C544.30314453 14.13922546 544.92318359 14.63680359 545.56201172 15.14945984 C555.25379916 23.77883657 560.74217338 36.81066968 561.96137619 49.5490551 C562.06828917 52.51859819 562.08896023 55.47469747 562.07128906 58.4460907 C562.07654602 59.5583754 562.08180298 60.6706601 562.08721924 61.81665039 C562.10030948 65.45507797 562.09171936 69.09305987 562.08154297 72.73149109 C562.08356699 75.28394656 562.08648116 77.83640147 562.09024048 80.38885498 C562.09464913 85.72375052 562.08857162 91.05848978 562.07421875 96.39335632 C562.05790523 102.52711633 562.06318097 108.66057685 562.07969797 114.79432958 C562.09504915 120.73704214 562.09330108 126.67966317 562.08455276 132.62239265 C562.08256325 135.13199977 562.08496574 137.64161462 562.09199142 140.15121269 C562.13823599 161.31131911 561.26928201 179.47380366 545.83935547 195.64555359 C534.18039908 206.43853676 519.92245669 210.97369403 504.22825336 210.90170956 C502.85898299 210.90741806 502.85898299 210.90741806 501.46205059 210.91324189 C498.41078416 210.92352799 495.35970479 210.91965699 492.3084259 210.915802 C490.09561647 210.92025601 487.88280863 210.92557059 485.67000312 210.93167073 C479.59470842 210.94584141 473.51946491 210.94751419 467.44415605 210.94707382 C461.56312817 210.94855341 455.682122 210.95936477 449.80110422 210.96976512 C435.54464623 210.99447691 421.28819992 211.00328472 407.03172346 211.00830161 C406.29382889 211.00856278 405.55593433 211.00882396 404.79567933 211.00909305 C404.05627408 211.00935332 403.31686883 211.00961359 402.55505736 211.00988176 C394.3542404 211.0129664 386.15342666 211.01947195 377.95261192 211.02609444 C353.17540171 211.04573885 328.39819496 211.06214539 303.62097645 211.06497097 C302.43275331 211.06511206 302.43275331 211.06511206 301.22052567 211.065256 C298.01040859 211.06563448 294.80029151 211.06599847 291.59017443 211.06635898 C289.17412996 211.0666307 286.75808549 211.06690738 284.34204102 211.06718445 C283.54368709 211.06727247 282.74533317 211.06736049 281.9227867 211.06745118 C256.84049827 211.07035635 231.7582869 211.09245172 206.67602539 211.12870789 C178.48567921 211.16945588 150.29538555 211.19312969 122.1050083 211.19343048 C119.09756481 211.1935273 116.09012133 211.19369402 113.08267784 211.1939106 C111.97194377 211.19397677 111.97194377 211.19397677 110.83877062 211.19404428 C98.93548283 211.19516295 87.03227243 211.2125543 75.12900953 211.23572992 C63.1604189 211.25860004 51.19193256 211.26277987 39.22332809 211.24818062 C32.74260428 211.2410096 26.26214795 211.24187823 19.78145409 211.26459122 C13.84414782 211.28520027 7.90731436 211.28256212 1.9700131 211.26171637 C-0.17329415 211.25822528 -2.31663566 211.2631152 -4.45989802 211.27742081 C-22.80564445 211.39194233 -38.06640616 208.36770974 -52.06689453 195.39164734 C-62.57563767 184.07840711 -68.10626541 170.35145033 -67.96386719 155.00517273 C-67.97262878 153.81631973 -67.98139038 152.62746674 -67.99041748 151.40258789 C-68.01223137 147.51444329 -67.99792036 143.62745759 -67.98095703 139.73930359 C-67.98207445 137.01130268 -67.98918175 134.2833216 -67.99545288 131.55532837 C-68.00450761 125.85391445 -67.99267373 120.15282609 -67.96875 114.45146179 C-67.94155941 107.89662172 -67.95035397 101.34256003 -67.97788203 94.78773886 C-68.00070812 89.12184516 -68.00370756 83.45618326 -67.99068868 77.79025835 C-67.98296569 74.42290061 -67.983667 71.05619485 -67.99837112 67.68881416 C-68.07150536 46.23469042 -66.24742962 30.91135962 -50.87939453 14.82914734 C-36.3395072 0.9943716 -19.12174974 -0.10210284 0 0 Z " fill="#FCFCFC" transform="translate(378.31689453125,696.3583526611328)"/>
<path d="M0 0 C0.79068878 -0.00067474 1.58137756 -0.00134949 2.39602661 -0.00204468 C63.95567088 0.0809313 121.57103613 24.79125537 165.75 67.25 C166.29543457 67.76820313 166.84086914 68.28640625 167.40283203 68.8203125 C175.68885147 76.71963482 182.93113789 85.06202369 189.75 94.25 C190.17909668 94.81831543 190.60819336 95.38663086 191.05029297 95.97216797 C197.81370562 104.948223 203.50646708 114.3155145 208.75 124.25 C209.09804688 124.90758301 209.44609375 125.56516602 209.8046875 126.24267578 C222.98470828 151.35779997 231.08296541 177.09327798 234.75 205.25 C234.92028214 206.34284805 235.09056427 207.43569611 235.26600647 208.56166077 C236.02786571 214.72112798 235.88079928 220.90509724 235.86352539 227.1015625 C235.86324291 228.49188739 235.86340244 229.88221243 235.8639679 231.27253723 C235.86425349 235.02608925 235.85839523 238.77960898 235.85139394 242.53315353 C235.84512079 246.4635883 235.84455348 250.39402389 235.84336853 254.32446289 C235.84026686 261.7580151 235.83206922 269.19155252 235.82201904 276.62509823 C235.80872583 286.6766182 235.80334859 296.72814225 235.79751682 306.77966881 C235.78812851 322.60312361 235.76820182 338.4265472 235.75 354.25 C206.71 354.25 177.67 354.25 147.75 354.25 C147.71261719 344.70191406 147.67523437 335.15382813 147.63671875 325.31640625 C147.60641722 319.24152235 147.57537432 313.16665695 147.54101562 307.09179688 C147.48670263 297.46478011 147.43528295 287.83781464 147.40356445 278.21069336 C147.38044144 271.19669818 147.34688698 264.18283975 147.30129844 257.16895336 C147.27755693 253.46223583 147.25870437 249.75565212 147.25238609 246.04886055 C147.22061781 223.98662211 147.22061781 223.98662211 143.75 202.25 C143.36922554 200.51472801 143.36922554 200.51472801 142.98075867 198.74440002 C141.77482937 193.34075187 140.15074656 188.42632955 137.765625 183.43359375 C136.73499551 181.21774034 135.90231737 178.98172835 135.0625 176.6875 C130.48881926 165.19052215 123.93593013 154.50434328 115.75 145.25 C115.00621094 144.39792969 114.26242187 143.54585937 113.49609375 142.66796875 C111.27825527 140.164926 109.02554283 137.70058459 106.75 135.25 C106.21117187 134.65703125 105.67234375 134.0640625 105.1171875 133.453125 C91.51338004 119.09734829 73.85126303 108.83302342 55.75 101.25 C55.11433105 100.98058594 54.47866211 100.71117187 53.82373047 100.43359375 C20.06808808 86.45526322 -20.3307779 87.59115156 -54.25 100.25 C-55.54033754 100.80354343 -56.82710614 101.3655141 -58.109375 101.9375 C-61.25 103.25 -61.25 103.25 -64.25 103.25 C-64.25 103.91 -64.25 104.57 -64.25 105.25 C-65.25546875 105.65992188 -66.2609375 106.06984375 -67.296875 106.4921875 C-78.37272968 111.25090898 -88.26270707 118.29768687 -97.25 126.25 C-98.23742187 127.10464844 -99.22484375 127.95929688 -100.2421875 128.83984375 C-120.13105738 146.31822948 -134.34555809 169.04123931 -142.25 194.25 C-142.57677734 195.29027344 -142.57677734 195.29027344 -142.91015625 196.3515625 C-143.60650494 198.60375311 -144.27648274 200.86220278 -144.9375 203.125 C-145.14012451 203.79515137 -145.34274902 204.46530273 -145.55151367 205.15576172 C-150.12974816 221.47849512 -149.58834069 238.52558163 -149.65471697 255.31536865 C-149.67054675 258.80404298 -149.69727144 262.29263519 -149.7227478 265.78125 C-149.76918959 272.36097249 -149.8060989 278.94071103 -149.83942068 285.52051163 C-149.88167648 293.76112752 -149.93694685 302.00165018 -149.9921875 310.2421875 C-150.09046653 324.91140658 -150.16935253 339.5806499 -150.25 354.25 C-179.29 354.25 -208.33 354.25 -238.25 354.25 C-238.41121214 320.3193233 -238.41121214 320.3193233 -238.4453125 305.96289062 C-238.46893119 296.09927938 -238.49650309 286.23580604 -238.55175781 276.37231445 C-238.59200248 269.18474713 -238.6175207 261.99729304 -238.62635398 254.80961615 C-238.63150611 251.01427605 -238.64335103 247.21925949 -238.67292023 243.42402458 C-238.7969173 226.8598305 -238.28298374 210.90619282 -234.75913239 194.64071846 C-234.07569229 191.43150824 -233.49095697 188.20692895 -232.90907669 184.97799587 C-226.333604 150.16995306 -209.28345699 115.94276927 -186.58398438 88.84423828 C-185.2332004 87.22992288 -183.90481253 85.59899354 -182.578125 83.96484375 C-172.92431782 72.18712901 -162.31738624 61.56184135 -150.25 52.25 C-149.68506836 51.80333984 -149.12013672 51.35667969 -148.53808594 50.89648438 C-116.29354613 25.42484897 -79.80948324 10.50242869 -39.6875 3 C-38.82020264 2.83669189 -37.95290527 2.67338379 -37.05932617 2.50512695 C-24.76732781 0.30757662 -12.45421546 0.00962068 0 0 Z " fill="#E0E3EA" transform="translate(626.25,220.75)"/>
<path d="M0 0 C0.66598206 0.00054382 1.33196411 0.00108765 2.01812744 0.00164795 C21.12294861 0.07265692 39.49990331 2.82138713 57.125 10.375 C58.27476318 10.86444092 58.27476318 10.86444092 59.44775391 11.36376953 C93.43498915 26.08676228 123.26124846 52.53831629 137.7578125 87.1328125 C138.94444065 90.1953079 140.05363464 93.27067497 141.125 96.375 C141.68389363 97.81390598 142.24591818 99.25160392 142.8125 100.6875 C158.83992062 145.71691985 148.125 248.14156613 148.125 264.375 C50.445 264.375 -47.235 264.375 -147.875 264.375 C-147.875 123.87651427 -147.875 123.87651427 -143.1875 108 C-142.92477295 107.10498779 -142.6620459 106.20997559 -142.39135742 105.2878418 C-136.44584469 85.65451536 -126.57295281 67.70366148 -112.875 52.375 C-112.03453125 51.40304687 -111.1940625 50.43109375 -110.328125 49.4296875 C-99.7311889 37.34437413 -87.50894697 27.82713869 -73.875 19.375 C-73.26108398 18.98812012 -72.64716797 18.60124023 -72.01464844 18.20263672 C-68.60170288 16.13289139 -66.96842475 15.375 -62.875 15.375 C-62.875 14.715 -62.875 14.055 -62.875 13.375 C-54.83617402 9.87829094 -46.7915033 6.88105601 -38.3125 4.625 C-37.58313232 4.42688721 -36.85376465 4.22877441 -36.10229492 4.0246582 C-24.20493867 0.97709162 -12.25153231 -0.01713501 0 0 Z " fill="#111A2C" transform="translate(624.875,310.625)"/>
<path d="M0 0 C0 0.66 0 1.32 0 2 C1.670625 1.9690625 1.670625 1.9690625 3.375 1.9375 C9.81691942 2.78271638 13.93856807 7.23341127 18 12 C24.20434883 21.91442409 25.19838155 30.10965591 25.25 41.5625 C25.270625 42.67947266 25.29125 43.79644531 25.3125 44.94726562 C25.37650007 58.7472813 22.30537649 71.67401734 12.6875 81.9375 C8.6482349 85.75460552 5.34026322 87.55179302 0 89 C-0.85271484 89.26683594 -0.85271484 89.26683594 -1.72265625 89.5390625 C-11.005096 91.41784104 -20.93287063 91.11724542 -29.21484375 86.38671875 C-31.94101561 84.26901413 -32.93042822 82.53338366 -33.375 79.125 C-32.89926683 75.16055696 -32.04933104 73.58020319 -29 71 C-24.95627763 71 -22.23648211 71.89250813 -18.5625 73.5625 C-13.31562506 75.67966006 -9.36177313 75.7557674 -3.875 74 C2.17283284 69.79281194 5.60731372 64.24196863 7 57 C7 55.68 7 54.36 7 53 C6.45730469 53.34933594 5.91460938 53.69867187 5.35546875 54.05859375 C4.64003906 54.51363281 3.92460938 54.96867188 3.1875 55.4375 C2.12595703 56.11619141 2.12595703 56.11619141 1.04296875 56.80859375 C-4.50986764 60.04686354 -10.78203379 59.60974355 -17 59 C-24.36224896 56.8268672 -29.88012253 52.43662554 -34 46 C-38.63799297 36.68272629 -39.36552707 28.35279896 -36.109375 18.4921875 C-32.41022704 10.18212976 -26.33026424 4.58264591 -17.9375 1.25 C-12.06649292 -0.60982245 -6.08972522 -0.25413073 0 0 Z " fill="#F59F2A" transform="translate(805,753)"/>
<path d="M0 0 C3.0625 0.3125 3.0625 0.3125 4.9375 1.375 C6.64446395 4.31477124 6.25049766 6.99120803 6.0625 10.3125 C6.6915625 10.41046875 7.320625 10.5084375 7.96875 10.609375 C14.98843774 11.83570599 22.34428088 13.54578775 27.0625 19.3125 C27.42498449 22.69568857 27.64683618 25.18034865 26.0625 28.25 C21.75574944 30.53796124 17.55817467 29.76710638 13.09375 28.41015625 C10.39587432 27.43321931 7.72658731 26.37813492 5.0625 25.3125 C5.3925 31.9125 5.7225 38.5125 6.0625 45.3125 C9.3109375 46.364375 9.3109375 46.364375 12.625 47.4375 C20.2096196 50.07270826 25.4317401 53.07894162 29.5 60.125 C32.0311962 65.85292243 31.85324455 71.45620023 30 77.375 C27.23571435 83.81642841 22.83656537 88.77778741 16.5 91.8125 C12.93013355 93.20621499 9.92284227 93.70843254 6.0625 93.3125 C6.124375 94.55 6.18625 95.7875 6.25 97.0625 C6.23531484 99.82331041 6.08975823 101.25192616 4.9375 103.8125 C3.0625 105.3125 3.0625 105.3125 0 105.75 C-0.969375 105.605625 -1.93875 105.46125 -2.9375 105.3125 C-5.61677341 101.29358988 -5.09351248 99.07088077 -4.9375 94.3125 C-5.88625 94.395 -6.835 94.4775 -7.8125 94.5625 C-15.34545694 94.5625 -22.75071983 90.30812886 -28.9375 86.3125 C-31.26329101 82.82381349 -31.35615457 81.41531481 -30.9375 77.3125 C-29.9375 74.9375 -29.9375 74.9375 -27.9375 73.3125 C-21.09847881 72.0690416 -16.62732334 74.63919006 -10.671875 77.90234375 C-7.82420423 79.50310877 -7.82420423 79.50310877 -3.9375 80.3125 C-4.2675 73.0525 -4.5975 65.7925 -4.9375 58.3125 C-6.7525 57.77625 -8.5675 57.24 -10.4375 56.6875 C-17.65476322 54.26188677 -23.44634913 51.28734366 -27.375 44.5625 C-27.890625 43.49 -28.40625 42.4175 -28.9375 41.3125 C-29.2675 40.6525 -29.5975 39.9925 -29.9375 39.3125 C-30.77863338 31.51584057 -29.12521669 25.59407503 -24.8125 19.125 C-21.08407215 15.03828478 -16.12449177 11.72934164 -10.578125 11.00390625 C-8.375 11 -8.375 11 -4.9375 11.3125 C-4.96070313 10.68601562 -4.98390625 10.05953125 -5.0078125 9.4140625 C-5.02585937 8.59679687 -5.04390625 7.77953125 -5.0625 6.9375 C-5.08570313 6.12539063 -5.10890625 5.31328125 -5.1328125 4.4765625 C-4.80705328 0.86715029 -3.44854374 0.36686636 0 0 Z " fill="#6534CE" transform="translate(600.9375,747.6875)"/>
<path d="M0 0 C4.78781162 3.61391736 8.2792598 7.58629448 9.53808594 13.54858398 C10.47509654 20.54991528 10.30518699 27.64105949 10.35009766 34.69506836 C10.36671584 36.60860303 10.39408221 38.52207417 10.43212891 40.43530273 C10.48688332 43.20849452 10.50875964 45.98024697 10.5234375 48.75390625 C10.54610687 49.60610245 10.56877625 50.45829865 10.59213257 51.33631897 C10.57656309 55.71269126 10.41302517 57.46323955 7.65869141 61.04272461 C5 63 5 63 1.9375 63.5625 C-1.65179197 62.87518877 -2.873528 61.94434585 -5 59 C-5 57.68 -5 56.36 -5 55 C-5.66 55 -6.32 55 -7 55 C-7.25668457 55.61423828 -7.51336914 56.22847656 -7.77783203 56.86132812 C-9.854934 60.49604911 -13.14486771 61.67371572 -17 63 C-20.06820437 63.51826874 -23.01934097 63.56284639 -26.125 63.5 C-27.28322266 63.52320313 -27.28322266 63.52320313 -28.46484375 63.546875 C-34.56505469 63.50530627 -38.16447897 61.75293304 -42.609375 57.4375 C-48.00845028 50.63318595 -48.93024717 45.66292678 -48 37 C-45.46482064 31.63712058 -41.40774897 27.4150287 -35.89160156 25.12451172 C-29.27004911 23.01394291 -23.29240604 22.63240732 -16.375 22.8125 C-15.37082031 22.82603516 -14.36664063 22.83957031 -13.33203125 22.85351562 C-10.88743136 22.88843848 -8.44402266 22.93747252 -6 23 C-6.27972656 21.7315625 -6.55945313 20.463125 -6.84765625 19.15625 C-7.00500244 18.44275391 -7.16234863 17.72925781 -7.32446289 16.99414062 C-7.94174482 14.70008173 -7.94174482 14.70008173 -10.4375 12.5 C-16.22139519 10.06467571 -21.77281278 9.93950788 -27.7578125 11.90625 C-29.42703316 12.60383475 -31.08099456 13.34001076 -32.7109375 14.125 C-35.32527456 15.12433703 -37.22311023 15.26602137 -40 15 C-42.68256474 12.68744419 -42.98867846 11.06918719 -43.5625 7.5625 C-43 4 -43 4 -40.6875 1.25 C-29.35083604 -6.75701441 -11.95229186 -6.07353497 0 0 Z " fill="#19C98F" transform="translate(415,780)"/>
<path d="M0 0 C3.33240378 0.83004929 4.77713218 1.99785 7.1328125 4.53125 C7.9026278 7.85852125 7.85405592 11.14330712 7.83984375 14.546875 C7.85496506 15.51784119 7.87008636 16.48880737 7.88566589 17.48919678 C7.92861263 20.5867828 7.93738776 23.68339566 7.9453125 26.78125 C7.96845133 28.8828385 7.99381538 30.98440376 8.02148438 33.0859375 C8.08440594 38.2344613 8.1166867 43.38237554 8.1328125 48.53125 C8.59244385 48.00595703 9.0520752 47.48066406 9.52563477 46.93945312 C10.79320209 45.49080475 12.06086542 44.04224039 13.32861328 42.59375 C14.64882638 41.08452669 15.96745183 39.57391414 17.28515625 38.0625 C19.21459429 35.86707816 21.17199414 33.69866799 23.1328125 31.53125 C24.14214844 30.36916016 24.14214844 30.36916016 25.171875 29.18359375 C30.2128793 23.6657377 30.2128793 23.6657377 34.98046875 22.96875 C40.05735354 23.87466253 40.05735354 23.87466253 42.1328125 26.53125 C42.70417044 29.76776208 42.93136051 31.42885272 42.1328125 34.53125 C39.69370039 37.95561005 36.72276447 40.69674716 33.6328125 43.53125 C32.82199219 44.30597656 32.01117187 45.08070313 31.17578125 45.87890625 C29.17831815 47.78237109 27.16468566 49.66467315 25.1328125 51.53125 C26.41868229 54.27854006 27.82625093 56.57352691 29.7421875 58.921875 C30.24717773 59.54521729 30.75216797 60.16855957 31.27246094 60.81079102 C32.06958496 61.78616821 32.06958496 61.78616821 32.8828125 62.78125 C33.96660317 64.12853849 35.04994121 65.47619121 36.1328125 66.82421875 C37.82636273 68.92377869 39.53115352 71.00940567 41.2578125 73.08203125 C43.65751111 76.05281198 45.00585853 77.94264525 45.8203125 81.71875 C44.86444825 85.62910374 43.34887002 87.15416401 40.1328125 89.53125 C37.1328125 90.15625 37.1328125 90.15625 34.1328125 89.53125 C32.07965674 87.91033756 30.7555954 86.53825727 29.1328125 84.53125 C28.53597656 83.81453125 27.93914063 83.0978125 27.32421875 82.359375 C22.91542397 76.9622539 18.80818472 71.38093206 14.796875 65.68359375 C13.31042707 63.43919621 13.31042707 63.43919621 11.1328125 62.53125 C10.8028125 63.52125 10.4728125 64.51125 10.1328125 65.53125 C9.1428125 66.02625 9.1428125 66.02625 8.1328125 66.53125 C8.11154297 68.39330078 8.11154297 68.39330078 8.08984375 70.29296875 C8.0429305 71.93493243 7.99468318 73.57685837 7.9453125 75.21875 C7.93951172 76.03537109 7.93371094 76.85199219 7.92773438 77.69335938 C7.7689132 82.05211835 7.53028816 84.01173064 4.8046875 87.57421875 C2.1328125 89.53125 2.1328125 89.53125 -1.4296875 90.15625 C-4.8671875 89.53125 -4.8671875 89.53125 -7.05067444 87.48268127 C-9.30641351 83.81760505 -9.4246396 80.8565928 -9.36889648 76.68334961 C-9.37700096 75.5214637 -9.37700096 75.5214637 -9.38526917 74.33610535 C-9.39774022 71.78487521 -9.38127859 69.23477707 -9.36328125 66.68359375 C-9.36343626 64.90670208 -9.36492559 63.12981006 -9.36769104 61.35292053 C-9.36907425 57.63315848 -9.35652898 53.91378239 -9.33374023 50.1940918 C-9.30533505 45.42680664 -9.30809953 40.66016163 -9.32083035 35.89282894 C-9.32778534 32.22537265 -9.32000066 28.5580643 -9.30757332 24.89062691 C-9.30305852 23.13276296 -9.30272227 21.37488313 -9.30663872 19.61701775 C-9.30954973 17.16093251 -9.2930507 14.70572958 -9.27124023 12.24975586 C-9.27574188 11.52393311 -9.28024353 10.79811035 -9.28488159 10.05029297 C-9.23983274 6.99656701 -9.01064068 4.80530158 -7.5841217 2.08009338 C-5.24181764 -0.03289507 -3.0689729 0.04814075 0 0 Z " fill="#171D2A" transform="translate(684.8671875,753.46875)"/>
<path d="M0 0 C1.43751366 -0.00024925 1.43751366 -0.00024925 2.90406799 -0.00050354 C3.99207199 -0.00988449 5.08007599 -0.01926544 6.2010498 -0.02893066 C7.37607559 -0.01769669 8.55110138 -0.00646271 9.76173401 0.00511169 C10.96878494 0.00365646 12.17583588 0.00220123 13.41946411 0.0007019 C15.97408967 0.00236314 18.52872501 0.01394931 21.08326721 0.03465271 C24.99670404 0.06356554 28.90878362 0.05527345 32.82228088 0.04222107 C35.30210519 0.04845946 37.7819252 0.05685117 40.26173401 0.06761169 C41.43473557 0.06467606 42.60773712 0.06174042 43.81628418 0.05871582 C44.90744034 0.07139999 45.9985965 0.08408417 47.12281799 0.09715271 C48.08195602 0.10255569 49.04109406 0.10795868 50.02929688 0.11352539 C53.04545782 0.57228462 54.42033117 1.36350829 56.57814026 3.50120544 C58.13145231 11.55018608 53.83747495 18.06835082 50.26564026 25.06370544 C49.66323179 26.26803592 49.06230818 27.47311033 48.46290588 28.67893982 C47.32479389 30.96660851 46.18328315 33.25259051 45.03785706 35.53660583 C43.42188245 38.81855594 41.96141524 42.11582193 40.57814026 45.50120544 C37.81146153 52.02179189 34.69610178 58.34317444 31.48365784 64.65330505 C29.34604417 68.87390854 27.41512193 73.13837397 25.57814026 77.50120544 C24.78615571 79.28130865 23.97563696 81.05336813 23.14064026 82.81370544 C22.75005432 83.65546326 22.35946838 84.49722107 21.95704651 85.36448669 C20.37581785 87.81471921 19.29321785 88.52294049 16.57814026 89.50120544 C12.96326302 89.9530651 11.2768124 89.99216425 8.26564026 87.87620544 C6.17848768 84.93873144 5.83918501 83.09131317 5.57814026 79.50120544 C6.5627594 76.42430115 6.5627594 76.42430115 8.11329651 73.17698669 C8.38903 72.59007553 8.66476349 72.00316437 8.94885254 71.39846802 C9.83170656 69.52962477 10.73599687 67.67208141 11.64064026 65.81370544 C12.22207677 64.58583214 12.8021668 63.35732028 13.38087463 62.12815857 C16.48164238 55.58884323 19.76288153 49.1775416 23.32032776 42.87425232 C24.97122451 39.75959462 26.1910395 36.54331905 27.44117737 33.25193787 C28.86455388 29.80826529 30.52286995 26.49797971 32.20704651 23.17698669 C32.53160828 22.53265686 32.85617004 21.88832703 33.19056702 21.22447205 C33.98447763 19.64906709 34.78103835 18.07499811 35.57814026 16.50120544 C33.92830139 16.49504211 33.92830139 16.49504211 32.24513245 16.48875427 C28.15953375 16.46696223 24.07489806 16.41267286 19.98976135 16.34861755 C18.22260272 16.32543798 16.45530596 16.3110419 14.68800354 16.3056488 C12.14529853 16.29635843 9.60476586 16.25537063 7.06251526 16.20823669 C6.27383057 16.21216934 5.48514587 16.21610199 4.67256165 16.22015381 C0.77082439 16.1166484 -1.03558262 15.86431046 -3.92478943 13.14842224 C-5.74731042 9.92572244 -5.96540032 8.15069221 -5.42185974 4.50120544 C-3.88057003 1.72406448 -3.16317458 0.65462103 0 0 Z " fill="#4470F2" transform="translate(472.42185974121094,753.4987945556641)"/>
<path d="M0 0 C0.33 0 0.66 0 1 0 C2.64566094 9.02753816 3.28127228 17.70189998 3.22705078 26.8684082 C3.22734283 28.18703857 3.22763489 29.50566895 3.22793579 30.86425781 C3.2285032 34.43574461 3.21684962 38.00709356 3.20278788 41.57854867 C3.19017697 45.32743879 3.18910194 49.07633303 3.18673706 52.82524109 C3.18055244 59.90449007 3.16418304 66.98367634 3.14403808 74.06289786 C3.11737551 83.64306446 3.10668202 93.22324854 3.09503365 102.80344296 C3.07629981 117.86900883 3.03643424 132.93444244 3 148 C32.04 148 61.08 148 91 148 C91 103.78 91 59.56 91 14 C91.33 14 91.66 14 92 14 C92 58.22 92 102.44 92 148 C109.82 148 127.64 148 146 148 C150.29 148.99 154.58 149.98 159 151 C159.33 151.66 159.66 152.32 160 153 C156.25890201 154.24703266 155.55570977 153.45460854 152 152 C145.34373576 150.68440225 138.68650125 150.87385039 131.92382812 150.90234375 C129.91835277 150.90458524 127.91287741 150.90682646 125.90740204 150.90905762 C123.76239124 150.91241806 121.61740011 150.91826848 119.47239685 150.92483521 C114.9920576 150.93841039 110.5117282 150.94426284 106.03137207 150.94897461 C96.52090138 150.96005303 87.01045455 150.97958674 77.5 151 C67.23112837 151.02204113 56.96226664 151.04261888 46.69337606 151.05341816 C42.24373102 151.0583869 37.79413191 151.06822603 33.34450531 151.08184814 C31.24143299 151.08752496 29.13837207 151.09089146 27.03529358 151.0932312 C24.47700802 151.09609056 21.91872283 151.10253296 19.36045837 151.11331177 C13.78123851 151.11365817 8.50097288 150.90842184 3 150 C0.16207009 150.28217913 0.16207009 150.28217913 -2.4375 150.9375 C-3.30246094 151.13214844 -4.16742187 151.32679688 -5.05859375 151.52734375 C-5.69925781 151.68332031 -6.33992188 151.83929687 -7 152 C-7 151.34 -7 150.68 -7 150 C-7.99 150.33 -8.98 150.66 -10 151 C-12.00263523 151.09332593 -14.00830061 151.12554435 -16.01310921 151.12584114 C-17.27800466 151.12844889 -18.54290011 151.13105664 -19.84612572 151.13374341 C-21.25777903 151.13158112 -22.66943219 151.12932446 -24.08108521 151.12698364 C-25.57456306 151.12813515 -27.06804062 151.12972288 -28.5615176 151.13171089 C-32.67614296 151.13590037 -36.79074525 151.13381519 -40.90537071 151.13072467 C-45.33907099 151.12846913 -49.7727672 151.13195103 -54.20646667 151.13470459 C-62.89799559 151.13916028 -71.58951589 151.13818652 -80.28104515 151.13529195 C-87.34611533 151.13303626 -94.41118308 151.13272612 -101.47625351 151.13381577 C-102.48070466 151.133969 -103.48515582 151.13412223 -104.52004489 151.13428011 C-106.5604597 151.13459983 -108.60087452 151.13492404 -110.64128934 151.1352527 C-129.79407709 151.13810712 -148.94686006 151.13482151 -168.09964703 151.12945233 C-184.53160302 151.12498841 -200.96355195 151.1257569 -217.39550781 151.13037109 C-236.46909033 151.13572455 -255.54266866 151.13782813 -274.61625183 151.13475883 C-276.65111852 151.13444028 -278.68598521 151.13412591 -280.7208519 151.13381577 C-281.72207255 151.13366149 -282.72329321 151.13350721 -283.75485388 151.13334826 C-290.80790537 151.13248512 -297.8609542 151.13394172 -304.91400528 151.13629532 C-313.51489405 151.13910225 -322.11577369 151.13833634 -330.71666141 151.13301457 C-335.10452969 151.13038902 -339.49238277 151.12935305 -343.88025093 151.13266373 C-347.89973137 151.13565051 -351.91918257 151.13399421 -355.93866037 151.12868617 C-357.3902687 151.1275721 -358.84187953 151.12813071 -360.29348625 151.13056196 C-375.20463685 151.15361378 -375.20463685 151.15361378 -382 150 C-382.33 149.34 -382.66 148.68 -383 148 C-353.96 148 -324.92 148 -295 148 C-295 106.42 -295 64.84 -295 22 C-294.67 22 -294.34 22 -294 22 C-294 63.58 -294 105.16 -294 148 C-196.32 148 -98.64 148 2 148 C4.66222551 77.68314227 4.66222551 77.68314227 0 8 C-0.11196073 5.32189925 -0.04625299 2.68267314 0 0 Z " fill="#6770A1" transform="translate(771,427)"/>
<path d="M0 0 C6.55848634 0.88287316 6.55848634 0.88287316 8.98651864 1.52699309 C12.57337134 2.36961629 16.27369558 2.1430394 19.94118881 2.1386652 C21.31822712 2.14292853 21.31822712 2.14292853 22.72308439 2.14727798 C25.8218886 2.15564856 28.92065555 2.15689504 32.01947021 2.15821838 C34.25444034 2.16278212 36.48940961 2.16778187 38.72437787 2.17318195 C44.88359003 2.18679386 51.04279665 2.19419024 57.20201993 2.20060861 C63.15646064 2.20777923 69.11089155 2.21960352 75.06532462 2.23132664 C87.24818289 2.25515081 99.43104438 2.27434925 111.61391449 2.29092598 C123.67927236 2.30735787 135.74462423 2.32583679 147.80997467 2.34705925 C148.55971332 2.34837686 149.30945197 2.34969446 150.08190997 2.351052 C153.88933849 2.35775394 157.69676694 2.36449254 161.50419536 2.37124526 C188.48342259 2.41902867 215.46265543 2.46220784 242.44189453 2.50268555 C268.65446378 2.54202351 294.86702839 2.58344315 321.07958984 2.62768555 C321.88734799 2.62904808 322.69510613 2.63041061 323.52734179 2.63181442 C331.63906274 2.64549961 339.75078361 2.65922717 347.86250443 2.67298577 C364.38752289 2.70101352 380.91254182 2.72875845 397.43756104 2.7563324 C398.57729156 2.7582347 398.57729156 2.7582347 399.74004694 2.76017542 C450.4933571 2.8448542 501.24667779 2.92291915 552 3 C552 3.66 552 4.32 552 5 C500.56387633 5.03423721 449.1277518 5.06607838 397.69161987 5.08468628 C396.93033243 5.08496239 396.16904499 5.08523851 395.38468824 5.08552299 C378.83980732 5.09150882 362.29492629 5.09704918 345.75004507 5.10213066 C337.63642325 5.10462533 329.52280146 5.10721844 321.40917969 5.10986328 C320.19807623 5.11025556 320.19807623 5.11025556 318.96250603 5.11065576 C292.7929203 5.11917824 266.62334321 5.13420071 240.45376272 5.15259444 C213.56081559 5.17146227 186.66787323 5.1837715 159.77491959 5.18782998 C155.97635909 5.18840629 152.17779861 5.18905756 148.37923813 5.18975449 C147.63162795 5.18988933 146.88401777 5.19002418 146.11375273 5.19016311 C134.07996069 5.19252642 122.04618342 5.2018022 110.0123974 5.21366407 C97.9139808 5.22544208 85.81557885 5.22993507 73.71715672 5.22700275 C67.16214143 5.22561564 60.60716106 5.22770873 54.05215263 5.23841095 C48.05130159 5.24813697 42.05052315 5.24863904 36.04966877 5.24179779 C33.87857509 5.24095213 31.7074769 5.24349462 29.53639211 5.24976636 C26.58399814 5.25779931 23.63186581 5.25346168 20.67947578 5.24609566 C19.83779504 5.25134968 18.99611429 5.25660371 18.12892807 5.26201695 C12.22836392 5.22878111 6.7430182 4.33330181 1 3 C0.67 2.01 0.34 1.02 0 0 Z " fill="#283682" transform="translate(344,904)"/>
<path d="M0 0 C0.33 0 0.66 0 1 0 C1 42.9 1 85.8 1 130 C-96.68 130 -194.36 130 -295 130 C-295 90.4 -295 50.8 -295 10 C-294.67 10 -294.34 10 -294 10 C-288.43722691 48.93941163 -293 88.66525426 -293 128 C-196.31 128 -99.62 128 0 128 C0 85.76 0 43.52 0 0 Z " fill="#090E18" transform="translate(772,445)"/>
<path d="M0 0 C0.66 0.00128906 1.32 0.00257813 2 0.00390625 C4.67946815 0.58480657 6.00353731 1.5604098 8 3.4375 C8.50793457 5.77670288 8.50793457 5.77670288 8.51757812 8.56396484 C8.53018677 9.60869965 8.54279541 10.65343445 8.55578613 11.72982788 C8.54768921 12.85796906 8.53959229 13.98611023 8.53125 15.1484375 C8.5350769 16.30872467 8.53890381 17.46901184 8.54284668 18.66445923 C8.54557065 21.12071601 8.53817576 23.57700155 8.52148438 26.03320312 C8.50012208 29.79102491 8.52125166 33.54692617 8.546875 37.3046875 C8.54423105 39.69010839 8.5391047 42.07552808 8.53125 44.4609375 C8.53934692 45.58503021 8.54744385 46.70912292 8.55578613 47.86727905 C8.46229537 55.66054095 8.46229537 55.66054095 6.09179688 59.64453125 C3.84458323 61.57071438 2.92399751 62.11960933 0 62.0625 C-0.99 62.08183594 -0.99 62.08183594 -2 62.1015625 C-5.3240498 60.99787409 -6.19850333 59.45021277 -8 56.4375 C-8.60480471 52.53249717 -8.56031355 48.65995005 -8.53125 44.71484375 C-8.5350769 43.57721085 -8.53890381 42.43957794 -8.54284668 41.26747131 C-8.54556517 38.86604933 -8.53820854 36.46459771 -8.52148438 34.06323242 C-8.50005583 30.38458421 -8.52130022 26.70788479 -8.546875 23.02929688 C-8.5442321 20.69530819 -8.53910792 18.36132071 -8.53125 16.02734375 C-8.53934692 14.92623764 -8.54744385 13.82513153 -8.55578613 12.69065857 C-8.54317749 11.66602005 -8.53056885 10.64138153 -8.51757812 9.58569336 C-8.51439575 8.68588242 -8.51121338 7.78607147 -8.50793457 6.85899353 C-7.56334955 2.35584164 -4.56764191 -0.13381763 0 0 Z " fill="#EB4A94" transform="translate(878,753.5625)"/>
<path d="M0 0 C4.69121475 1.7140977 7.31998123 3.78854193 10 8 C11.75802233 12.74666028 12.56105196 16.95053238 12 22 C9.32124375 26.714611 6.09747879 28.38579838 1 30 C-3.23532165 30.67175314 -6.35112249 30.32443876 -10.25 28.375 C-13.81676859 25.29460895 -16.57703616 22.64708833 -17.34765625 17.82421875 C-17.54034807 12.83936522 -16.86546217 9.20267785 -14 5 C-9.56728597 0.25802685 -6.25678277 -1.13873446 0 0 Z " fill="#FDFAF5" transform="translate(801,768)"/>
<path d="M0 0 C0.33 0 0.66 0 1 0 C1 41.91 1 83.82 1 127 C99.01 127 197.02 127 298 127 C294.55549263 129.29633824 292.06187717 129.54016485 288 130 C288 129.34 288 128.68 288 128 C287.01 128.33 286.02 128.66 285 129 C282.99736477 129.09332593 280.99169939 129.12554435 278.98689079 129.12584114 C277.72199534 129.12844889 276.45709989 129.13105664 275.15387428 129.13374341 C273.74222097 129.13158112 272.33056781 129.12932446 270.91891479 129.12698364 C269.42543694 129.12813515 267.93195938 129.12972288 266.4384824 129.13171089 C262.32385704 129.13590037 258.20925475 129.13381519 254.09462929 129.13072467 C249.66092901 129.12846913 245.2272328 129.13195103 240.79353333 129.13470459 C232.10200441 129.13916028 223.41048411 129.13818652 214.71895485 129.13529195 C207.65388467 129.13303626 200.58881692 129.13272612 193.52374649 129.13381577 C192.51929534 129.133969 191.51484418 129.13412223 190.47995511 129.13428011 C188.4395403 129.13459983 186.39912548 129.13492404 184.35871066 129.1352527 C165.20592291 129.13810712 146.05313994 129.13482151 126.90035297 129.12945233 C110.46839698 129.12498841 94.03644805 129.1257569 77.60449219 129.13037109 C58.53090967 129.13572455 39.45733134 129.13782813 20.38374817 129.13475883 C18.34888148 129.13444028 16.31401479 129.13412591 14.2791481 129.13381577 C13.27792745 129.13366149 12.27670679 129.13350721 11.24514612 129.13334826 C4.19209463 129.13248512 -2.8609542 129.13394172 -9.91400528 129.13629532 C-18.51489405 129.13910225 -27.11577369 129.13833634 -35.71666141 129.13301457 C-40.10452969 129.13038902 -44.49238277 129.12935305 -48.88025093 129.13266373 C-52.89973137 129.13565051 -56.91918257 129.13399421 -60.93866037 129.12868617 C-62.3902687 129.1275721 -63.84187953 129.12813071 -65.29348625 129.13056196 C-80.20463685 129.15361378 -80.20463685 129.15361378 -87 128 C-87.33 127.34 -87.66 126.68 -88 126 C-58.96 126 -29.92 126 0 126 C0 84.42 0 42.84 0 0 Z " fill="#8793E4" transform="translate(476,449)"/>
<path d="M0 0 C0.87914062 0.01804687 1.75828125 0.03609375 2.6640625 0.0546875 C4.8181832 0.10151621 6.97173774 0.17325006 9.125 0.25 C9.18429396 1.68830197 9.22659789 3.1273111 9.26171875 4.56640625 C9.29978638 5.76825562 9.29978638 5.76825562 9.33862305 6.99438477 C9.125 9.25 9.125 9.25 6.9375 12.1875 C0.78984238 16.69578226 -5.41698836 17.26125582 -12.875 16.25 C-15.6875 14.1875 -15.6875 14.1875 -16.875 11.25 C-17 7.6875 -17 7.6875 -15.875 4.25 C-10.78553164 -0.31269217 -6.46473673 -0.25313728 0 0 Z " fill="#EFF9F6" transform="translate(399.875,813.75)"/>
<path d="M0 0 C0.33 0 0.66 0 1 0 C1 41.25 1 82.5 1 125 C0.01 125 -0.98 125 -2 125 C-2.0231241 114.97772237 -2.04091543 104.95545103 -2.05181217 94.9331522 C-2.05704085 90.27988814 -2.06413823 85.62664226 -2.07543945 80.97338867 C-2.08626886 76.48655454 -2.09227695 71.99973796 -2.09487724 67.51289177 C-2.0967314 65.79719707 -2.10035182 64.08150338 -2.10573006 62.36581612 C-2.11294121 59.97115087 -2.11399091 57.57655904 -2.11352539 55.18188477 C-2.11712067 54.46547318 -2.12071594 53.74906158 -2.12442017 53.01094055 C-2.11405216 48.11405216 -2.11405216 48.11405216 -1 47 C-0.87767356 45.52749355 -0.8222544 44.04934289 -0.79467773 42.57202148 C-0.77473251 41.63112167 -0.75478729 40.69022186 -0.73423767 39.72080994 C-0.71752518 38.69790359 -0.70081268 37.67499725 -0.68359375 36.62109375 C-0.66281265 35.57929459 -0.64203156 34.53749542 -0.62062073 33.46412659 C-0.55500943 30.12198753 -0.49618669 26.77976715 -0.4375 23.4375 C-0.39432578 21.17772582 -0.35071186 18.91795999 -0.30664062 16.65820312 C-0.19931633 11.10555579 -0.09757188 5.55282679 0 0 Z " fill="#D6D9E1" transform="translate(776,450)"/>
<path d="M0 0 C3.36783781 0.70615954 4.82085562 1.69429938 6.9375 4.40625 C7.65478811 7.55761417 7.62249916 10.25076205 6.9375 13.40625 C4.94522296 16.45692422 3.60067126 18.00051669 0 18.87890625 C-3.92294665 19.16866935 -5.73419602 18.62511932 -9.0625 16.40625 C-11.28175086 13.07737371 -11.82140933 11.26688492 -11.5390625 7.34375 C-10.06424173 1.34775736 -5.60397091 -0.42454325 0 0 Z " fill="#EC4C95" transform="translate(880.0625,824.59375)"/>
<path d="M0 0 C3.51351578 2.45946104 4.43033036 4.88488305 5.23580933 8.93183899 C6.19700258 15.32151582 6.26680473 21.64033017 6.22705078 28.09057617 C6.22734283 29.35039307 6.22763489 30.61020996 6.22793579 31.90820312 C6.22850426 35.32692296 6.21683303 38.74549941 6.20278788 42.16418624 C6.1901951 45.75026308 6.18910334 49.33634403 6.18673706 52.92243958 C6.1805472 59.69717912 6.16417055 66.47185331 6.14403808 73.24656421 C6.12160094 80.96613115 6.11066609 88.68570138 6.10064721 96.40529287 C6.07980179 112.27023296 6.04467491 128.13510802 6 144 C5.67 144 5.34 144 5 144 C4.12379688 124.56397244 3.72257479 105.14067057 3.46777344 85.68890381 C3.42766295 82.70592876 3.38349275 79.72301969 3.33930016 76.74010277 C3.29577306 73.77281995 3.2544672 70.80550965 3.2139473 67.83818436 C3.19375176 66.36305777 3.17312108 64.88793707 3.15205002 63.41282272 C3.03785664 55.26029619 2.98893998 47.11442081 3.07861328 38.96142578 C3.09153562 37.47884745 3.10431918 35.9962679 3.11695862 34.51368713 C3.14093447 31.75771157 3.18503316 29.00465133 3.24131775 26.24888611 C3.32853786 17.08409611 2.10465317 8.88313791 0 0 Z " fill="#6675E6" transform="translate(972,620)"/>
<path d="M0 0 C0.66 0 1.32 0 2 0 C2.04677869 14.35169151 2.08188449 28.70337115 2.10362434 43.05512333 C2.1140587 49.71931493 2.12821169 56.38344533 2.15087891 63.04760742 C2.17261946 69.47962892 2.18457125 75.91160114 2.18975449 82.34365654 C2.19344804 84.7968263 2.20066059 87.24999339 2.21146011 89.70314217 C2.22599092 93.14077698 2.22797725 96.57820853 2.22705078 100.01586914 C2.23424133 101.02863419 2.24143188 102.04139923 2.24884033 103.08485413 C2.23318688 108.45725657 1.77996037 112.92000754 0 118 C-0.33 118 -0.66 118 -1 118 C-0.67 79.06 -0.34 40.12 0 0 Z " fill="#3B48A4" transform="translate(940,749)"/>
<path d="M0 0 C0.33 0 0.66 0 1 0 C1.7153911 7.48017012 2.09280079 14.91194132 2.2109375 22.421875 C2.2252179 23.25779175 2.23949829 24.0937085 2.25421143 24.95495605 C2.31154608 28.41718177 2.36614176 31.87926763 2.40136719 35.34179688 C2.49301273 57.38228875 2.49301273 57.38228875 9.6875 77.875 C13 83.78674948 13 83.78674948 13 87 C-1.99737028 70.8917134 -0.52050504 47.341446 -0.25 27.0625 C-0.22990116 24.43295633 -0.2116564 21.80339781 -0.1953125 19.17382812 C-0.15159375 12.78222366 -0.08495058 6.39118255 0 0 Z " fill="#4658BF" transform="translate(272,901)"/>
<path d="M0 0 C7.46341463 2.48780488 7.46341463 2.48780488 10 6 C10.64524143 9.79079343 10.30281734 11.47589307 8.375 14.8125 C6 17 6 17 0 18 C0 12.06 0 6.12 0 0 Z " fill="#F5F1FB" transform="translate(606,809)"/>
<path d="M0 0 C0 5.94 0 11.88 0 18 C-7 16 -7 16 -8.9375 14.25 C-10.38526082 11.18415355 -10.54792259 9.35602584 -10 6 C-7.10223905 2.47569614 -4.78737767 0 0 0 Z " fill="#ECE5F9" transform="translate(597,772)"/>
<path d="M0 0 C0.33 0 0.66 0 1 0 C2.06098535 5.21179289 2.16116552 10.23445826 2.16796875 15.52734375 C2.17129715 16.43448624 2.17462555 17.34162872 2.17805481 18.27626038 C2.18310074 20.18831884 2.18546386 22.10038605 2.18530273 24.01245117 C2.18749021 26.92446487 2.20567348 29.83610003 2.22460938 32.74804688 C2.22754366 34.61197788 2.22952822 36.47591067 2.23046875 38.33984375 C2.23765427 39.20359116 2.24483978 40.06733856 2.25224304 40.95726013 C2.23325022 46.02535852 1.63480783 50.19600561 0 55 C-2.16568486 51.75147271 -2.21456925 51.51878411 -1.64477539 47.95532227 C-0.94683425 42.86441591 -0.77954808 37.84841509 -0.68359375 32.71484375 C-0.66281265 31.77314835 -0.64203156 30.83145294 -0.62062073 29.86122131 C-0.55583222 26.88671355 -0.49657299 23.9121262 -0.4375 20.9375 C-0.39424735 18.90689319 -0.35063104 16.87629409 -0.30664062 14.84570312 C-0.20022457 9.89721459 -0.09876334 4.94864694 0 0 Z " fill="#4757BC" transform="translate(976,913)"/>
<path d="M0 0 C0.33 0 0.66 0 1 0 C1 13.86 1 27.72 1 42 C0.01 42 -0.98 42 -2 42 C-2.02886537 37.68751391 -2.04675255 33.37505238 -2.0625 29.0625 C-2.07087891 27.83080078 -2.07925781 26.59910156 -2.08789062 25.33007812 C-2.09111328 24.16025391 -2.09433594 22.99042969 -2.09765625 21.78515625 C-2.10289307 20.70113525 -2.10812988 19.61711426 -2.11352539 18.50024414 C-2 16 -2 16 -1 15 C-0.76346477 12.47403741 -0.57826308 9.96892793 -0.4375 7.4375 C-0.39431641 6.72658203 -0.35113281 6.01566406 -0.30664062 5.28320312 C-0.20028223 3.52238088 -0.09961154 1.7612168 0 0 Z " fill="#D3D7DF" transform="translate(776,533)"/>
<path d="M0 0 C0.66 0.33 1.32 0.66 2 1 C-7.77627499 13.46313203 -21.72106337 21.16980082 -37 25 C-39.7770635 25.26916154 -42.20727222 25.21482521 -45 25 C-45 24.67 -45 24.34 -45 24 C-43.35 24 -41.7 24 -40 24 C-40 23.34 -40 22.68 -40 22 C-38.67548828 21.77957031 -38.67548828 21.77957031 -37.32421875 21.5546875 C-21.9586736 18.68293148 -10.67018865 11.21737781 0 0 Z " fill="#4151B0" transform="translate(960,992)"/>
<path d="M0 0 C0.53109375 0.226875 1.0621875 0.45375 1.609375 0.6875 C0.99191406 0.97882812 0.37445313 1.27015625 -0.26171875 1.5703125 C-9.22366223 5.90805683 -16.62982295 10.67983096 -23.703125 17.6875 C-24.2069873 18.18580322 -24.71084961 18.68410645 -25.22998047 19.19750977 C-28.43034065 22.46042292 -30.96393001 25.81401061 -33.390625 29.6875 C-34.19921875 28.05078125 -34.19921875 28.05078125 -34.390625 25.6875 C-32.81278942 23.53203675 -31.30844798 21.76395331 -29.453125 19.875 C-28.94313965 19.34237549 -28.4331543 18.80975098 -27.90771484 18.26098633 C-26.41744189 16.7203188 -24.908103 15.2013189 -23.390625 13.6875 C-22.71128906 12.9965625 -22.03195312 12.305625 -21.33203125 11.59375 C-16.50037481 7.02186004 -6.95551485 -0.90921763 0 0 Z " fill="#7180E5" transform="translate(317.390625,580.3125)"/>
<path d="M0 0 C1.09698741 2.74899821 1.04845226 3.86499793 0.03125 6.69921875 C-6.01755778 18.50365231 -12.71474335 26.86911851 -24 34 C-26.36328125 34.75 -26.36328125 34.75 -28 35 C-24.92318032 31.71805901 -21.7245171 29.0176249 -18.125 26.3125 C-9.30956768 19.3150871 -4.70899063 10.03894706 0 0 Z " fill="#43519F" transform="translate(938,868)"/>
<path d="M0 0 C9.35793932 1.55965655 16.95007017 6.8968847 24 13 C24.67933594 13.58394531 25.35867188 14.16789063 26.05859375 14.76953125 C31.83704927 20.11995302 39.60310142 28.74818124 40.21875 36.89453125 C40.1465625 37.58933594 40.074375 38.28414062 40 39 C37.69569865 36.102779 36.02415753 33.18295925 34.375 29.875 C26.83640015 16.01429808 14.57726767 6.68266367 0 1 C0 0.67 0 0.34 0 0 Z " fill="#7584E8" transform="translate(932,580)"/>
<path d="M0 0 C5.95089333 11.90178665 3.11180079 28.11502303 2 41 C1.34 41 0.68 41 0 41 C0 27.47 0 13.94 0 0 Z " fill="#D6DAE2" transform="translate(388,534)"/>
<path d="M0 0 C7.68479207 -0.06975534 15.36955098 -0.12294022 23.05458832 -0.15543652 C26.62374621 -0.17103947 30.19268622 -0.19217818 33.76171875 -0.22631836 C37.21118793 -0.25910534 40.66044857 -0.27689332 44.11006165 -0.28463173 C46.05533736 -0.29280731 48.00053012 -0.31619545 49.94567871 -0.33988953 C56.69894573 -0.34116405 61.8679552 0.09798972 68 3 C67.01 3.66 66.02 4.32 65 5 C63.31165408 4.39031953 61.64797236 3.71162443 60 3 C53.60849689 1.77993582 47.21354232 1.78017557 40.72265625 1.68359375 C39.5561705 1.66281265 38.38968475 1.64203156 37.18785095 1.62062073 C33.47945776 1.55549089 29.77099668 1.49641083 26.0625 1.4375 C23.54100874 1.39427999 21.01952423 1.3506646 18.49804688 1.30664062 C12.33210201 1.19984716 6.16609033 1.0980143 0 1 C0 0.67 0 0.34 0 0 Z " fill="#8A9AFE" transform="translate(863,576)"/>
<path d="M0 0 C0.33 0 0.66 0 1 0 C2.84092455 8.25115405 3.26848464 16.10736343 3.1953125 24.54296875 C3.1924826 25.79257889 3.18965271 27.04218903 3.18673706 28.32966614 C3.17751184 31.61265022 3.15962088 34.8954285 3.1373291 38.17834473 C3.11667588 41.54400141 3.1076942 44.90968851 3.09765625 48.27539062 C3.0757216 54.85033921 3.04233939 61.42515282 3 68 C2.67 68 2.34 68 2 68 C1.98969254 67.40166855 1.97938507 66.8033371 1.96876526 66.18687439 C1.8603092 59.94096815 1.74574485 53.69519483 1.62768555 47.44946289 C1.58446166 45.12071523 1.54277808 42.79193844 1.50268555 40.46313477 C1.44467816 37.10944859 1.38107233 33.75590735 1.31640625 30.40234375 C1.29969376 29.36665756 1.28298126 28.33097137 1.26576233 27.26390076 C1.16027219 22.07810584 0.83128781 17.11792859 0 12 C-0.0633117 9.85499969 -0.0866101 7.70829902 -0.0625 5.5625 C-0.05347656 4.51191406 -0.04445313 3.46132813 -0.03515625 2.37890625 C-0.02355469 1.59386719 -0.01195312 0.80882812 0 0 Z " fill="#1A2335" transform="translate(477,443)"/>
<path d="M0 0 C1.02802734 0.00322266 2.05605469 0.00644531 3.11523438 0.00976562 C4.72301758 0.02233398 4.72301758 0.02233398 6.36328125 0.03515625 C7.44673828 0.03966797 8.53019531 0.04417969 9.64648438 0.04882812 C12.3229721 0.06061882 14.99934902 0.07707562 17.67578125 0.09765625 C17.67578125 0.42765625 17.67578125 0.75765625 17.67578125 1.09765625 C20.64578125 1.59265625 20.64578125 1.59265625 23.67578125 2.09765625 C23.67578125 2.42765625 23.67578125 2.75765625 23.67578125 3.09765625 C11.79578125 3.09765625 -0.08421875 3.09765625 -12.32421875 3.09765625 C-7.80212575 0.83660975 -4.96576699 -0.02743518 0 0 Z " fill="#1E2432" transform="translate(952.32421875,1162.90234375)"/>
<path d="M0 0 C0.33 0 0.66 0 1 0 C1.05850924 3.68743234 1.09376673 7.3747437 1.125 11.0625 C1.14175781 12.10083984 1.15851562 13.13917969 1.17578125 14.20898438 C1.21183286 19.88711284 0.92971166 24.64391054 -1 30 C-1.33 30 -1.66 30 -2 30 C-1.85957505 26.49976144 -1.71166774 22.99987601 -1.5625 19.5 C-1.52318359 18.51773438 -1.48386719 17.53546875 -1.44335938 16.5234375 C-1.20239383 10.9626941 -0.78078831 5.51144691 0 0 Z " fill="#34429C" transform="translate(941,837)"/>
<path d="M0 0 C3.32339457 1.45959897 5.6142832 3.33321963 8.25 5.8125 C12.26295079 9.46608206 16.31510732 12.27424426 21 15 C20.67 15.66 20.34 16.32 20 17 C2.44075021 7.32225064 2.44075021 7.32225064 0 0 Z " fill="#3A4795" transform="translate(321,887)"/>
<path d="M0 0 C0 0.33 0 0.66 0 1 C-4.455 1.495 -4.455 1.495 -9 2 C-9 2.66 -9 3.32 -9 4 C-12.63 4 -16.26 4 -20 4 C-20 3.67 -20 3.34 -20 3 C-22.97 2.505 -22.97 2.505 -26 2 C-26 1.67 -26 1.34 -26 1 C-17.33003296 -0.16711095 -8.72630608 -0.09744014 0 0 Z " fill="#373B47" transform="translate(292,88)"/>
<path d="M0 0 C4.98771429 4.33890593 5.31990054 8.66112423 6 15 C6.12654775 17.69546717 6.10188593 20.30002282 6 23 C4.07140545 20.10710817 3.56274284 18.64502085 2.9296875 15.33203125 C2.75566406 14.43935547 2.58164062 13.54667969 2.40234375 12.62695312 C2.22832031 11.69818359 2.05429687 10.76941406 1.875 9.8125 C1.69324219 8.87212891 1.51148438 7.93175781 1.32421875 6.96289062 C0.87673135 4.64302171 0.43557758 2.32212941 0 0 Z " fill="#6776DD" transform="translate(972,620)"/>
<path d="M0 0 C0.33 0 0.66 0 1 0 C1 13.86 1 27.72 1 42 C0.01 42 -0.98 42 -2 42 C-1.67 41.01 -1.34 40.02 -1 39 C-0.84565842 36.05282827 -0.7424397 33.12501135 -0.68359375 30.17578125 C-0.66281265 29.31438034 -0.64203156 28.45297943 -0.62062073 27.56547546 C-0.55525091 24.81456456 -0.49629868 22.06355844 -0.4375 19.3125 C-0.39430283 17.44725579 -0.35068815 15.5820212 -0.30664062 13.71679688 C-0.19958237 9.14462876 -0.09827946 4.5723649 0 0 Z " fill="#C9CCD4" transform="translate(776,533)"/>
<path d="M0 0 C-2.04099935 0.7933855 -4.0828309 1.5846303 -6.125 2.375 C-7.26195312 2.81585937 -8.39890625 3.25671875 -9.5703125 3.7109375 C-15.82914569 6.06334633 -20.35649718 7.2290863 -27 7 C-27 6.67 -27 6.34 -27 6 C-25.35 6 -23.7 6 -22 6 C-22 5.34 -22 4.68 -22 4 C-21.03578125 3.80664062 -20.0715625 3.61328125 -19.078125 3.4140625 C-17.81484375 3.15367187 -16.5515625 2.89328125 -15.25 2.625 C-13.99703125 2.36976563 -12.7440625 2.11453125 -11.453125 1.8515625 C-8.12089084 1.1774848 -8.12089084 1.1774848 -5.796875 -0.1640625 C-3.49357462 -1.23559789 -2.34109931 -0.8361069 0 0 Z " fill="#3E4FAC" transform="translate(942,1010)"/>
<path d="M0 0 C0.66 0.33 1.32 0.66 2 1 C-10.0620155 13.43895349 -10.0620155 13.43895349 -17 15 C-13.07052482 10.8085598 -8.72552841 7.31252078 -4.20703125 3.76953125 C-1.96559241 2.03849892 -1.96559241 2.03849892 0 0 Z " fill="#344290" transform="translate(927,888)"/>
<path d="M0 0 C0.66 0.33 1.32 0.66 2 1 C0.58474822 2.58459815 -0.8322642 4.16762391 -2.25 5.75 C-3.03890625 6.63171875 -3.8278125 7.5134375 -4.640625 8.421875 C-6.70592672 10.67866165 -8.81735064 12.85739926 -11 15 C-11.99 14.67 -12.98 14.34 -14 14 C-9.38 9.38 -4.76 4.76 0 0 Z " fill="#252B3A" transform="translate(151,137)"/>
<path d="M0 0 C1.32 0 2.64 0 4 0 C4 0.99 4 1.98 4 3 C5.98 3 7.96 3 10 3 C10 3.33 10 3.66 10 4 C-1.22 3.67 -12.44 3.34 -24 3 C-24 2.67 -24 2.34 -24 2 C-16.08 1.67 -8.16 1.34 0 1 C0 0.67 0 0.34 0 0 Z " fill="#A9ADB5" transform="translate(639,308)"/>
<path d="M0 0 C0.66 0.33 1.32 0.66 2 1 C-2.60136502 6.53601728 -7.46398272 11.39863498 -13 16 C-13.66 15.67 -14.32 15.34 -15 15 C-10.05 10.05 -5.1 5.1 0 0 Z " fill="#D8D9DD" transform="translate(465,282)"/>
<path d="M0 0 C0.33 0 0.66 0 1 0 C2.87387655 9.77092772 3.22867275 19.10355133 3 29 C2.67 29 2.34 29 2 29 C2 24.71 2 20.42 2 16 C1.34 16 0.68 16 0 16 C0 10.72 0 5.44 0 0 Z " fill="#41444C" transform="translate(1159,256)"/>
<path d="M0 0 C0 0.33 0 0.66 0 1 C-0.78246094 1.04898438 -1.56492187 1.09796875 -2.37109375 1.1484375 C-3.38300781 1.22320313 -4.39492188 1.29796875 -5.4375 1.375 C-6.44683594 1.44460938 -7.45617187 1.51421875 -8.49609375 1.5859375 C-9.32238281 1.72257813 -10.14867187 1.85921875 -11 2 C-11.33 2.66 -11.66 3.32 -12 4 C-15.375 4.75 -15.375 4.75 -19 5 C-19.99 4.34 -20.98 3.68 -22 3 C-14.49783264 -0.0517291 -8.05364285 -0.33608711 0 0 Z " fill="#F8B75D" transform="translate(805,753)"/>
<path d="M0 0 C1.51400391 0.01740234 1.51400391 0.01740234 3.05859375 0.03515625 C4.07050781 0.04417969 5.08242188 0.05320312 6.125 0.0625 C7.29869141 0.07990234 7.29869141 0.07990234 8.49609375 0.09765625 C6.72107177 2.37757337 5.86601505 3.04812748 2.95239258 3.43823242 C1.96263428 3.42252197 0.97287598 3.40681152 -0.046875 3.390625 C-1.6565918 3.37612305 -1.6565918 3.37612305 -3.29882812 3.36132812 C-4.41837891 3.33619141 -5.53792969 3.31105469 -6.69140625 3.28515625 C-7.82255859 3.27162109 -8.95371094 3.25808594 -10.11914062 3.24414062 C-12.91453942 3.20875583 -15.70898517 3.15938573 -18.50390625 3.09765625 C-18.50390625 2.76765625 -18.50390625 2.43765625 -18.50390625 2.09765625 C-17.43269531 2.03707031 -16.36148438 1.97648437 -15.2578125 1.9140625 C-13.86066234 1.82967088 -12.46352768 1.74502219 -11.06640625 1.66015625 C-10.00583008 1.60118164 -10.00583008 1.60118164 -8.92382812 1.54101562 C-5.59280504 1.3338228 -3.0599718 0.11934367 0 0 Z " fill="#1D2534" transform="translate(632.50390625,310.90234375)"/>
<path d="M0 0 C0.33 0 0.66 0 1 0 C2.23839599 6.65637843 2.09139136 13.2471936 2 20 C-1.38811921 16.45139093 -1.35003669 13.66675766 -1.25 8.875 C-1.23453125 7.63492187 -1.2190625 6.39484375 -1.203125 5.1171875 C-1 2 -1 2 0 0 Z " fill="#EFEFF0" transform="translate(87,268)"/>
<path d="M0 0 C2.92986993 2.7578993 5.15493064 5.50391411 7.25 8.9375 C7.77078125 9.77152344 8.2915625 10.60554687 8.828125 11.46484375 C10.09925343 14.21471825 10.23544115 16.00882725 10 19 C7.62313751 15.98266558 5.71677067 12.86886696 3.875 9.5 C3.35679687 8.5615625 2.83859375 7.623125 2.3046875 6.65625 C1.19176589 4.39042158 0.47633009 2.46297513 0 0 Z " fill="#6978DB" transform="translate(962,600)"/>
<path d="M0 0 C0.33 0 0.66 0 1 0 C1.0809723 2.43816585 1.14046972 4.87364384 1.1875 7.3125 C1.22520508 8.34793945 1.22520508 8.34793945 1.26367188 9.40429688 C1.33834499 14.55674183 1.33834499 14.55674183 -0.51171875 16.98046875 C-1.24841797 17.48513672 -1.24841797 17.48513672 -2 18 C-2.054348 15.9377952 -2.09294961 13.87517184 -2.125 11.8125 C-2.14820312 10.66394531 -2.17140625 9.51539063 -2.1953125 8.33203125 C-2.00484152 5.08259628 -1.39360127 2.91339479 0 0 Z " fill="#3C414D" transform="translate(91,264)"/>
<path d="M0 0 C1.26328125 0.02707031 2.5265625 0.05414062 3.828125 0.08203125 C4.79234375 0.11683594 5.7565625 0.15164063 6.75 0.1875 C7.08 0.8475 7.41 1.5075 7.75 2.1875 C-1.655 2.6825 -1.655 2.6825 -11.25 3.1875 C-6.71532336 -0.21350748 -5.4587218 -0.15163116 0 0 Z " fill="#36CD9A" transform="translate(396.25,775.8125)"/>
<path d="M0 0 C0 0.33 0 0.66 0 1 C-2.31 1 -4.62 1 -7 1 C-7.33 1.66 -7.66 2.32 -8 3 C-9.65 2.67 -11.3 2.34 -13 2 C-13 2.66 -13 3.32 -13 4 C-17.21015871 4.95685425 -19.25712373 5.13181214 -23 3 C-7.25512528 -0.44419134 -7.25512528 -0.44419134 0 0 Z " fill="#383B44" transform="translate(256,91)"/>
<path d="M0 0 C0.66 0.99 1.32 1.98 2 3 C-4.435 3.495 -4.435 3.495 -11 4 C-11.33 3.01 -11.66 2.02 -12 1 C-7.94153944 0.01613077 -4.17153059 -0.3148325 0 0 Z " fill="#CBCED5" transform="translate(608,309)"/>
<path d="M0 0 C0.33 0 0.66 0 1 0 C1.10477512 5.78591511 0.99250545 11.29309366 0 17 C-0.66 16.67 -1.32 16.34 -2 16 C-2 12.37 -2 8.74 -2 5 C-1.67 5 -1.34 5 -1 5 C-0.67 3.35 -0.34 1.7 0 0 Z " fill="#F0F0F0" transform="translate(88,970)"/>
<path d="M0 0 C1.58294782 -0.05437607 3.16644256 -0.09296271 4.75 -0.125 C5.63171875 -0.14820312 6.5134375 -0.17140625 7.421875 -0.1953125 C10.1135858 0.00860498 11.69904974 0.63448279 14 2 C12.42972683 3.57027317 10.85730053 3.16974386 8.6875 3.1875 C7.90761719 3.20167969 7.12773437 3.21585937 6.32421875 3.23046875 C3.7967332 2.97984413 2.18281969 2.26373772 0 1 C0 0.67 0 0.34 0 0 Z " fill="#1C222E" transform="translate(256,90)"/>
<path d="M0 0 C5.8022175 -0.36263859 9.63999211 0.74315457 15 3 C14.01 3.66 13.02 4.32 12 5 C10.31165408 4.39031953 8.64797236 3.71162443 7 3 C4.67402489 2.6186926 2.34087842 2.27539746 0 2 C0 1.34 0 0.68 0 0 Z " fill="#7281E0" transform="translate(916,576)"/>
<path d="M0 0 C-1.75 3.875 -1.75 3.875 -4 5 C-7 5.25 -7 5.25 -10 5 C-10.66 4.01 -11.32 3.02 -12 2 C-9.525 2.495 -9.525 2.495 -7 3 C-6.67 2.34 -6.34 1.68 -6 1 C-3.911361 0.32624548 -2.19636905 0 0 0 Z " fill="#24C18E" transform="translate(424,838)"/>
<path d="M0 0 C1.26014503 3.7804351 0.81641135 6.12204611 0 10 C-1.546875 12.22265625 -1.546875 12.22265625 -3 14 C-3.08153933 12.41753293 -3.13943557 10.83383727 -3.1875 9.25 C-3.22230469 8.36828125 -3.25710938 7.4865625 -3.29296875 6.578125 C-2.94923684 3.55328417 -1.99772541 2.24416398 0 0 Z " fill="#6876E3" transform="translate(277,621)"/>
<path d="M0 0 C0.99 0.33 1.98 0.66 3 1 C0.19195732 3.96404505 -2.18315774 6.44499019 -6 8 C-6 7.01 -6 6.02 -6 5 C-3.1875 2.25 -3.1875 2.25 0 0 Z M3 0 C5 1 5 1 5 1 Z " fill="#1B2232" transform="translate(536,340)"/>
<path d="M0 0 C0 0.99 0 1.98 0 3 C-1.31057393 3.36122881 -2.62353624 3.71380311 -3.9375 4.0625 C-4.66839844 4.25972656 -5.39929688 4.45695312 -6.15234375 4.66015625 C-6.76207031 4.77230469 -7.37179688 4.88445312 -8 5 C-8.33 4.67 -8.66 4.34 -9 4 C-10.32594105 3.63837971 -11.65938457 3.30271961 -13 3 C-11.39743892 2.49487756 -9.79288208 1.99608373 -8.1875 1.5 C-7.29417969 1.2215625 -6.40085938 0.943125 -5.48046875 0.65625 C-3 0 -3 0 0 0 Z " fill="#2A2F3C" transform="translate(222,98)"/>
<path d="M0 0 C0.33 0 0.66 0 1 0 C1 1.98 1 3.96 1 6 C-4.94 6 -10.88 6 -17 6 C-17 5.67 -17 5.34 -17 5 C-15.41058594 4.96132813 -15.41058594 4.96132813 -13.7890625 4.921875 C-12.40099999 4.8656022 -11.01298075 4.80825467 -9.625 4.75 C-8.92632812 4.73582031 -8.22765625 4.72164062 -7.5078125 4.70703125 C-5.22282354 4.63964218 -5.22282354 4.63964218 -2 4 C-0.43516506 2.08611659 -0.43516506 2.08611659 0 0 Z " fill="#DCF6EE" transform="translate(408,797)"/>
<path d="M0 0 C0.99 0.495 0.99 0.495 2 1 C3.26761762 5.29581527 4 8.50944298 4 13 C3.34 13 2.68 13 2 13 C-0.28571429 4.57142857 -0.28571429 4.57142857 0 0 Z " fill="#2A2C38" transform="translate(766,410)"/>
<path d="M0 0 C0.66 0.99 1.32 1.98 2 3 C0.35 5.97 -1.3 8.94 -3 12 C-3.66 12 -4.32 12 -5 12 C-3.68938409 7.76570244 -2.05643741 3.92592596 0 0 Z " fill="#D7D8DC" transform="translate(413,351)"/>
<path d="M0 0 C0 0.66 0 1.32 0 2 C1.32 2.66 2.64 3.32 4 4 C-0.51617599 4.07654536 -4.59085217 4.10228696 -9 3 C-6.38997624 -0.48003168 -4.1689578 -0.27793052 0 0 Z " fill="#393D48" transform="translate(264,1161)"/>
<path d="M0 0 C0.66 0.33 1.32 0.66 2 1 C-1.49087093 5.0042343 -3.64951939 6.62671065 -9 7 C-6.25604436 4.05278838 -3.61662784 1.80831392 0 0 Z " fill="#292E3C" transform="translate(182,114)"/>
<path d="M0 0 C2.31 0 4.62 0 7 0 C7 0.66 7 1.32 7 2 C3.53777385 3.06723961 0.35960734 3.10173486 -3.25 3.0625 C-4.32765625 3.05347656 -5.4053125 3.04445313 -6.515625 3.03515625 C-7.33546875 3.02355469 -8.1553125 3.01195313 -9 3 C-9 2.67 -9 2.34 -9 2 C-4.545 1.505 -4.545 1.505 0 1 C0 0.67 0 0.34 0 0 Z " fill="#E3E3E5" transform="translate(982,86)"/>
<path d="M0 0 C0.928125 0.0825 1.85625 0.165 2.8125 0.25 C-0.9375 3.25 -0.9375 3.25 -3.1875 3.25 C-3.1875 3.91 -3.1875 4.57 -3.1875 5.25 C-3.8475 5.25 -4.5075 5.25 -5.1875 5.25 C-5.1875 6.9 -5.1875 8.55 -5.1875 10.25 C-5.5175 10.25 -5.8475 10.25 -6.1875 10.25 C-6.40681821 7.03333296 -6.45578383 4.81637697 -5.0625 1.875 C-3.1875 0.25 -3.1875 0.25 0 0 Z " fill="#6F42CE" transform="translate(576.1875,820.75)"/>
<path d="M0 0 C0.89203125 0.00902344 1.7840625 0.01804687 2.703125 0.02734375 C3.37859375 0.03894531 4.0540625 0.05054688 4.75 0.0625 C4.75 0.3925 4.75 0.7225 4.75 1.0625 C-4.66002278 3.35862756 -4.66002278 3.35862756 -9.25 3.0625 C-9.25 2.4025 -9.25 1.7425 -9.25 1.0625 C-6.09493858 0.12630187 -3.28413498 -0.0432123 0 0 Z " fill="#7481E1" transform="translate(329.25,576.9375)"/>
<path d="M0 0 C1.85625 -0.061875 1.85625 -0.061875 3.75 -0.125 C4.79414062 -0.15980469 4.79414062 -0.15980469 5.859375 -0.1953125 C8 0 8 0 12 2 C8.7 2.33 5.4 2.66 2 3 C2 2.34 2 1.68 2 1 C1.34 0.67 0.68 0.34 0 0 Z " fill="#1F2330" transform="translate(1002,1159)"/>
<path d="M0 0 C0 0.66 0 1.32 0 2 C-3.82320557 3.42258812 -6.91281305 4.24042276 -11 4 C-10.01 3.67 -9.02 3.34 -8 3 C-8 2.34 -8 1.68 -8 1 C-5.10765685 0.17361624 -3.11257569 0 0 0 Z " fill="#374691" transform="translate(909,903)"/>
<path d="M0 0 C-3.3 2.31 -6.6 4.62 -10 7 C-10 6.01 -10 5.02 -10 4 C-8.57421875 2.578125 -8.57421875 2.578125 -6.6875 1.25 C-6.07261719 0.80140625 -5.45773437 0.3528125 -4.82421875 -0.109375 C-3 -1 -3 -1 0 0 Z " fill="#EAEBED" transform="translate(490,266)"/>
<path d="M0 0 C1 3 1 3 0 6 C-0.66 6 -1.32 6 -2 6 C-1.67 6.99 -1.34 7.98 -1 9 C-2.4375 11.1875 -2.4375 11.1875 -4 13 C-3.55966813 7.80408388 -3.11696661 4.33664919 0 0 Z " fill="#D9DCF0" transform="translate(315,731)"/>
<path d="M0 0 C0.33 0 0.66 0 1 0 C1 5.28 1 10.56 1 16 C0.01 16 -0.98 16 -2 16 C-1.67 15.01 -1.34 14.02 -1 13 C-0.77548542 10.77425665 -0.59217122 8.54418481 -0.4375 6.3125 C-0.35371094 5.13300781 -0.26992188 3.95351563 -0.18359375 2.73828125 C-0.12300781 1.83464844 -0.06242188 0.93101562 0 0 Z " fill="#C2C5CD" transform="translate(776,559)"/>
<path d="M0 0 C0.33 0 0.66 0 1 0 C0.64989059 8.35010941 0.64989059 8.35010941 -2.0625 11.0625 C-2.701875 11.371875 -3.34125 11.68125 -4 12 C-2.66666667 8 -1.33333333 4 0 0 Z " fill="#323644" transform="translate(488,401)"/>
<path d="M0 0 C0.99 0.66 1.98 1.32 3 2 C1.25 4.0625 1.25 4.0625 -1 6 C-3.25 5.75 -3.25 5.75 -5 5 C-3.35 3.35 -1.7 1.7 0 0 Z " fill="#212838" transform="translate(520,354)"/>
<path d="M0 0 C2.31 0 4.62 0 7 0 C5.09598862 1.90401138 3.66574314 2.93520439 0.953125 3.19921875 C-1.03233273 3.1886578 -3.0169914 3.09915043 -5 3 C-5 2.67 -5 2.34 -5 2 C-3.35 2 -1.7 2 0 2 C0 1.34 0 0.68 0 0 Z " fill="#3A47A1" transform="translate(920,1014)"/>
<path d="M0 0 C0.66 0 1.32 0 2 0 C2.042721 1.66611905 2.04063832 3.33382885 2 5 C1.67 5.33 1.34 5.66 1 6 C0.63239269 8.32817964 0.29758419 10.6618385 0 13 C-0.33 13 -0.66 13 -1 13 C-1.0272415 11.58344207 -1.04650467 10.16672955 -1.0625 8.75 C-1.07410156 7.96109375 -1.08570313 7.1721875 -1.09765625 6.359375 C-1.00385306 4.09308998 -0.63241063 2.1711105 0 0 Z " fill="#F6B358" transform="translate(768,775)"/>
<path d="M0 0 C1.32 0 2.64 0 4 0 C3.67 0.99 3.34 1.98 3 3 C2.01 3.33 1.02 3.66 0 4 C-0.33 4.66 -0.66 5.32 -1 6 C-1.66 6 -2.32 6 -3 6 C-1.125 1.125 -1.125 1.125 0 0 Z " fill="#282B37" transform="translate(679,754)"/>
<path d="M0 0 C0.99 0 1.98 0 3 0 C3 3.63 3 7.26 3 11 C1.04783565 7.09567131 0.49360009 4.27786748 0 0 Z " fill="#1B202B" transform="translate(768,423)"/>
<path d="M0 0 C3 4 3 4 2.8125 7.1875 C2.544375 8.115625 2.27625 9.04375 2 10 C1.01 10.495 1.01 10.495 0 11 C0 7.37 0 3.74 0 0 Z " fill="#DCDCDE" transform="translate(1161,979)"/>
<path d="M0 0 C3.87132028 0.57352893 6.08172796 2.48704352 9 5 C8.67 5.66 8.34 6.32 8 7 C6.66382648 6.02471263 5.3311249 5.04466681 4 4.0625 C3.2575 3.51722656 2.515 2.97195313 1.75 2.41015625 C1.1725 1.94480469 0.595 1.47945313 0 1 C0 0.67 0 0.34 0 0 Z " fill="#EBECEE" transform="translate(762,265)"/>
<path d="M0 0 C1.32 0.66 2.64 1.32 4 2 C2.35 2.33 0.7 2.66 -1 3 C-1 5.31 -1 7.62 -1 10 C-1.33 10 -1.66 10 -2 10 C-2.1953125 3.9453125 -2.1953125 3.9453125 -2 2 C-1.34 1.34 -0.68 0.68 0 0 Z " fill="#7646D4" transform="translate(598,748)"/>
<path d="M0 0 C0.66 0 1.32 0 2 0 C1.46930939 3.82097239 0.50298434 6.06171403 -2 9 C-1.125 2.25 -1.125 2.25 0 0 Z " fill="#6978DF" transform="translate(280,611)"/>
<path d="M0 0 C0.99 0 1.98 0 3 0 C4.125 2.3125 4.125 2.3125 5 5 C4.01 6.485 4.01 6.485 3 8 C2.01 5.36 1.02 2.72 0 0 Z " fill="#CCCFD9" transform="translate(761,395)"/>
<path d="M0 0 C0 0.99 0 1.98 0 3 C-2.60582371 3.93065133 -3.64198224 4.14917407 -6.25 3.0625 C-6.8275 2.711875 -7.405 2.36125 -8 2 C-5.09399739 0.74335022 -3.20395416 0 0 0 Z " fill="#2F3441" transform="translate(570,322)"/>
<path d="M0 0 C0.6875 1.6875 0.6875 1.6875 1 4 C-0.3125 6.75 -0.3125 6.75 -2 9 C-2.66 9 -3.32 9 -4 9 C-2.94124926 5.59687262 -1.99097846 2.98646769 0 0 Z " fill="#2A2F3D" transform="translate(116,180)"/>
<path d="M0 0 C0.66 0 1.32 0 2 0 C1.34 2.97 0.68 5.94 0 9 C-0.33 9 -0.66 9 -1 9 C-1.09765625 2.84765625 -1.09765625 2.84765625 -1 1 C-0.67 0.67 -0.34 0.34 0 0 Z " fill="#EA599B" transform="translate(870,829)"/>
<path d="M0 0 C0.75 1.75 0.75 1.75 1 4 C-0.9375 6.25 -0.9375 6.25 -3 8 C-2.25 2.25 -2.25 2.25 0 0 Z " fill="#3365F5" transform="translate(491,808)"/>
<path d="M0 0 C1.98 0 3.96 0 6 0 C5.67 0.99 5.34 1.98 5 3 C3.35 3 1.7 3 0 3 C0 2.01 0 1.02 0 0 Z " fill="#36CE9A" transform="translate(375,792)"/>
<path d="M0 0 C0.33 0.99 0.66 1.98 1 3 C-1.475 4.485 -1.475 4.485 -4 6 C-4.33 5.01 -4.66 4.02 -5 3 C-2.25 0 -2.25 0 0 0 Z " fill="#CCCFD7" transform="translate(541,334)"/>
<path d="M0 0 C1.5 1.125 1.5 1.125 3 3 C3.1875 6.1875 3.1875 6.1875 3 9 C2.01 8.67 1.02 8.34 0 8 C0 5.36 0 2.72 0 0 Z " fill="#1D2332" transform="translate(91,256)"/>
</svg>
